<svg width="36" height="36" viewBox="0 0 36 36" fill="none" xmlns="http://www.w3.org/2000/svg">
<path fill-rule="evenodd" clip-rule="evenodd" d="M0 17.55C0 27.2426 7.8574 35.1 17.55 35.1C27.2426 35.1 35.1 27.2426 35.1 17.55C35.1 7.8574 27.2426 0 17.55 0C7.8574 0 0 7.8574 0 17.55ZM28.5642 16.8784C28.5619 22.6309 23.8822 27.3117 18.1285 27.314H18.1242C16.3776 27.3134 14.6614 26.8752 13.1372 26.0438L7.60499 27.495L9.08549 22.0873C8.17225 20.5046 7.6917 18.7094 7.69249 16.8701C7.69478 11.1162 12.3763 6.435 18.1284 6.435C20.9201 6.43621 23.5403 7.523 25.5105 9.49558C27.4808 11.4681 28.5653 14.09 28.5642 16.8784Z" fill="white"/>
<path fill-rule="evenodd" clip-rule="evenodd" d="M10.1106 25.0157L13.3935 24.1546L13.7102 24.3425C15.042 25.1328 16.5685 25.551 18.125 25.5516H18.1285C22.9092 25.5516 26.8003 21.6605 26.8022 16.8777C26.8031 14.5601 25.9017 12.3809 24.2641 10.7413C22.6265 9.10179 20.4487 8.19844 18.1319 8.19763C13.3475 8.19763 9.45637 12.0884 9.45447 16.8707C9.4538 18.5097 9.91237 20.1058 10.7806 21.4868L10.9869 21.815L10.1106 25.0157ZM23.0288 19.1252C23.2107 19.213 23.3335 19.2724 23.3859 19.3599C23.4511 19.4687 23.4511 19.9907 23.2339 20.5999C23.0165 21.209 21.9748 21.7649 21.4738 21.8398C21.0246 21.9069 20.4561 21.9349 19.8315 21.7364C19.4527 21.6163 18.9671 21.4558 18.345 21.1872C15.9004 20.1316 14.2484 17.7623 13.9362 17.3146C13.9143 17.2832 13.899 17.2612 13.8905 17.2499L13.8884 17.247C13.7504 17.0629 12.8258 15.8293 12.8258 14.5524C12.8258 13.3513 13.4158 12.7218 13.6874 12.432C13.706 12.4121 13.7231 12.3939 13.7384 12.3771C13.9774 12.1161 14.2599 12.0508 14.4337 12.0508C14.6076 12.0508 14.7816 12.0524 14.9335 12.0601C14.9522 12.061 14.9717 12.0609 14.9919 12.0608C15.1439 12.0599 15.3333 12.0588 15.5202 12.5077C15.5921 12.6804 15.6973 12.9365 15.8082 13.2066C16.0326 13.7529 16.2805 14.3565 16.3241 14.4438C16.3893 14.5743 16.4328 14.7265 16.3459 14.9006C16.3328 14.9267 16.3208 14.9514 16.3092 14.9749C16.244 15.1082 16.1959 15.2062 16.0851 15.3356C16.0416 15.3865 15.9965 15.4413 15.9515 15.4962C15.8618 15.6054 15.7721 15.7146 15.694 15.7925C15.5634 15.9225 15.4276 16.0636 15.5797 16.3246C15.7318 16.5857 16.2551 17.4395 17.0303 18.131C17.8635 18.8742 18.5878 19.1884 18.9549 19.3476C19.0265 19.3787 19.0846 19.4039 19.1272 19.4252C19.3879 19.5558 19.54 19.5339 19.6921 19.3599C19.8442 19.1859 20.3439 18.5985 20.5177 18.3375C20.6915 18.0765 20.8654 18.12 21.1044 18.207C21.3435 18.2941 22.6255 18.9248 22.8862 19.0553C22.9371 19.0808 22.9847 19.1038 23.0288 19.1252Z" fill="white"/>
</svg>
