<svg width="87" height="36" viewBox="0 0 87 36" fill="none" xmlns="http://www.w3.org/2000/svg">
<path fill-rule="evenodd" clip-rule="evenodd" d="M17.55 0C7.8574 0 0 7.8574 0 17.55C0 27.2426 7.8574 35.1 17.55 35.1C27.2426 35.1 35.1 27.2426 35.1 17.55C35.1 7.8574 27.2426 0 17.55 0ZM18.9789 23.0901C18.8059 23.2725 18.468 23.3094 18.468 23.3094H17.3492C17.3492 23.3094 14.8807 23.455 12.7062 21.2333C10.3348 18.8094 8.24082 14.0002 8.24082 14.0002C8.24082 14.0002 8.11996 13.6847 8.25089 13.5328C8.3983 13.3612 8.80024 13.3504 8.80024 13.3504L11.4747 13.3333C11.4747 13.3333 11.7265 13.3738 11.9069 13.5041C12.0561 13.6119 12.1394 13.8123 12.1394 13.8123C12.1394 13.8123 12.5716 14.8854 13.1438 15.8561C14.2618 17.7515 14.7818 18.1659 15.1609 17.9627C15.7139 17.6671 15.5482 15.2836 15.5482 15.2836C15.5482 15.2836 15.5583 14.419 15.2698 14.0334C15.0464 13.735 14.6253 13.6479 14.4394 13.6236C14.2883 13.6038 14.5355 13.2605 14.856 13.1068C15.3376 12.8758 16.1873 12.8624 17.1917 12.8723C17.9745 12.8803 18.1998 12.928 18.5056 13.0008C19.2153 13.1689 19.1931 13.7077 19.1453 14.8705C19.131 15.2182 19.1144 15.6218 19.1144 16.088C19.1144 16.1927 19.1113 16.3044 19.1081 16.4193C19.0915 17.015 19.0725 17.6972 19.4724 17.9511C19.6775 18.0805 20.1784 17.9699 21.4318 15.8813C22.026 14.8908 22.471 13.727 22.471 13.727C22.471 13.727 22.569 13.5194 22.7201 13.4304C22.8748 13.3396 23.0835 13.3675 23.0835 13.3675L25.8981 13.3504C25.8981 13.3504 26.7441 13.2506 26.8805 13.6263C27.0243 14.0191 26.5646 14.9376 25.4146 16.4421C24.3238 17.8696 23.7929 18.3952 23.8417 18.86C23.8773 19.1997 24.2223 19.5069 24.8845 20.1099C26.2669 21.3697 26.6374 22.0325 26.7264 22.1917C26.7338 22.2049 26.7393 22.2147 26.7432 22.221C27.363 23.2303 26.0556 23.3094 26.0556 23.3094L23.5551 23.3435C23.5551 23.3435 23.0185 23.4478 22.3117 22.9715C21.9414 22.7222 21.5796 22.315 21.235 21.9271C20.7087 21.3348 20.2225 20.7877 19.8075 20.9169C19.1108 21.1344 19.1318 22.6075 19.1318 22.6075C19.1318 22.6075 19.1373 22.9229 18.9789 23.0901Z" fill="white"/>
<path fill-rule="evenodd" clip-rule="evenodd" d="M68.55 0C58.8574 0 51 7.8574 51 17.55C51 27.2426 58.8574 35.1 68.55 35.1C78.2426 35.1 86.1 27.2426 86.1 17.55C86.1 7.8574 78.2426 0 68.55 0ZM64.6914 8.24655C65.6898 8.20111 66.0088 8.19 68.5509 8.19H68.548C71.0908 8.19 71.4086 8.20111 72.407 8.24655C73.4035 8.29218 74.0841 8.44994 74.6808 8.68141C75.297 8.92028 75.8176 9.24009 76.3383 9.76074C76.8589 10.281 77.1787 10.8032 77.4186 11.4188C77.6487 12.014 77.8066 12.6942 77.8534 13.6906C77.8983 14.689 77.91 15.0081 77.91 17.5501C77.91 20.0921 77.8983 20.4104 77.8534 21.4088C77.8066 22.4049 77.6487 23.0852 77.4186 23.6806C77.1787 24.296 76.8589 24.8182 76.3383 25.3385C75.8182 25.8591 75.2968 26.1797 74.6814 26.4188C74.0858 26.6503 73.4049 26.808 72.4084 26.8536C71.41 26.8991 71.0919 26.9102 68.5497 26.9102C66.0079 26.9102 65.689 26.8991 64.6906 26.8536C63.6944 26.808 63.014 26.6503 62.4185 26.4188C61.8032 26.1797 61.281 25.8591 60.7609 25.3385C60.2405 24.8182 59.9207 24.296 59.6814 23.6804C59.4501 23.0852 59.2924 22.4051 59.2466 21.4086C59.2013 20.4102 59.19 20.0921 59.19 17.5501C59.19 15.0081 59.2017 14.6888 59.2464 13.6904C59.2912 12.6944 59.4492 12.014 59.6812 11.4186C59.9211 10.8032 60.2409 10.281 60.7615 9.76074C61.2818 9.24028 61.804 8.92048 62.4196 8.68141C63.0148 8.44994 63.6949 8.29218 64.6914 8.24655Z" fill="white"/>
<path fill-rule="evenodd" clip-rule="evenodd" d="M67.7112 9.87673C67.8743 9.87647 68.0497 9.87655 68.2389 9.87664L68.5509 9.87673C71.05 9.87673 71.3462 9.8857 72.3332 9.93055C73.2458 9.97228 73.7411 10.1248 74.071 10.2529C74.5078 10.4225 74.8192 10.6253 75.1466 10.9529C75.4742 11.2805 75.677 11.5926 75.8471 12.0294C75.9752 12.3589 76.1279 12.8542 76.1694 13.7668C76.2143 14.7535 76.224 15.0499 76.224 17.5479C76.224 20.0459 76.2143 20.3423 76.1694 21.329C76.1277 22.2416 75.9752 22.7369 75.8471 23.0665C75.6774 23.5033 75.4742 23.8143 75.1466 24.1417C74.819 24.4693 74.508 24.6721 74.071 24.8418C73.7415 24.9705 73.2458 25.1226 72.3332 25.1643C71.3464 25.2092 71.05 25.2189 68.5509 25.2189C66.0516 25.2189 65.7553 25.2092 64.7686 25.1643C63.856 25.1222 63.3607 24.9697 63.0306 24.8416C62.5938 24.6719 62.2818 24.4691 61.9542 24.1415C61.6266 23.8139 61.4238 23.5027 61.2537 23.0657C61.1256 22.7361 60.9729 22.2408 60.9314 21.3282C60.8865 20.3415 60.8776 20.0451 60.8776 17.5456C60.8776 15.046 60.8865 14.7512 60.9314 13.7645C60.9731 12.8519 61.1256 12.3566 61.2537 12.0266C61.4234 11.5898 61.6266 11.2778 61.9542 10.9502C62.2818 10.6226 62.5938 10.4198 63.0306 10.2498C63.3605 10.1211 63.856 9.96897 64.7686 9.92704C65.6321 9.88804 65.9667 9.87634 67.7112 9.87439V9.87673ZM73.5472 11.4309C72.9271 11.4309 72.424 11.9334 72.424 12.5537C72.424 13.1738 72.9271 13.6769 73.5472 13.6769C74.1673 13.6769 74.6704 13.1738 74.6704 12.5537C74.6704 11.9336 74.1673 11.4305 73.5472 11.4305V11.4309ZM63.7441 17.5501C63.7441 14.8955 65.8963 12.7433 68.5509 12.7433H68.5507C71.2053 12.7433 73.3569 14.8955 73.3569 17.5501C73.3569 20.2046 71.2055 22.3559 68.5509 22.3559C65.8963 22.3559 63.7441 20.2046 63.7441 17.5501Z" fill="white"/>
<path d="M68.5509 14.4301C70.2739 14.4301 71.6709 15.8269 71.6709 17.5501C71.6709 19.2731 70.2739 20.6701 68.5509 20.6701C66.8276 20.6701 65.4308 19.2731 65.4308 17.5501C65.4308 15.8269 66.8276 14.4301 68.5509 14.4301Z" fill="white"/>
</svg>
