<svg width="30" height="25" viewBox="0 0 30 25" fill="none" xmlns="http://www.w3.org/2000/svg">
<path d="M14.2936 17.8323C14.4193 17.8742 14.545 17.8951 14.6708 17.8951C14.7965 17.8951 14.9222 17.8742 15.0374 17.8323C17.4783 16.9942 22.0771 13.8305 22.0771 7.79649C22.0771 3.70046 18.7458 0.379639 14.6708 0.379639C10.5747 0.379639 7.25391 3.71093 7.25391 7.79649C7.25391 13.8305 11.8632 16.9942 14.2936 17.8323ZM14.6708 4.40234C16.525 4.40234 18.0335 5.91085 18.0335 7.76506C18.0335 9.61927 16.525 11.1278 14.6708 11.1278C12.8165 11.1278 11.308 9.61927 11.308 7.76506C11.3185 5.90037 12.8165 4.40234 14.6708 4.40234Z" fill="#1C274C"/>
<path d="M29.085 22.494L23.4072 15.3915C23.0091 14.8886 22.2758 14.8153 21.7834 15.2134C21.2806 15.6115 21.2072 16.3448 21.6053 16.8371L25.7747 22.0541H3.56604L7.7354 16.8371C8.13348 16.3343 8.04967 15.6115 7.55731 15.2134C7.05448 14.8153 6.33165 14.8991 5.93357 15.3915L0.255698 22.494C-0.0271483 22.8397 -0.0795272 23.3216 0.119512 23.7197C0.308076 24.1178 0.716632 24.3797 1.16709 24.3797H28.1841C28.6241 24.3797 29.0327 24.1283 29.2317 23.7197C29.4098 23.3111 29.3574 22.8397 29.085 22.494Z" fill="#1C274C"/>
</svg>
