<svg width="30" height="27" viewBox="0 0 30 27" fill="none" xmlns="http://www.w3.org/2000/svg">
<path d="M20.927 17.3217L20.1678 18.0408C20.1678 18.0408 18.3635 19.7505 13.4385 15.0838C8.51353 10.4173 10.3178 8.70763 10.3178 8.70763L10.7958 8.25468C11.9735 7.13888 12.0845 5.34745 11.057 4.03965L8.95543 1.36442C7.6838 -0.254251 5.2266 -0.468076 3.76908 0.912962L1.15308 3.39171C0.43038 4.0765 -0.0539197 4.96418 0.00481366 5.94892C0.155064 8.4682 1.35118 13.8887 8.0256 20.2129C15.1035 26.9194 21.7447 27.1859 24.4605 26.9446C25.3195 26.8684 26.0665 26.4515 26.6685 25.881L29.0362 23.6378C30.6343 22.1234 30.1837 19.5272 28.1388 18.468L24.9547 16.8185C23.612 16.123 21.9763 16.3273 20.927 17.3217Z" fill="#1C274C"/>
</svg>
