<svg width="30" height="30" viewBox="0 0 30 30" fill="none" xmlns="http://www.w3.org/2000/svg">
<path fill-rule="evenodd" clip-rule="evenodd" d="M15 2.09302C7.87168 2.09302 2.09302 7.87168 2.09302 15C2.09302 22.1283 7.87168 27.907 15 27.907C22.1283 27.907 27.907 22.1283 27.907 15C27.907 7.87168 22.1283 2.09302 15 2.09302ZM0 15C0 6.71573 6.71573 0 15 0C23.2843 0 30 6.71573 30 15C30 23.2843 23.2843 30 15 30C6.71573 30 0 23.2843 0 15ZM15 8.37209C15.578 8.37209 16.0465 8.84064 16.0465 9.4186V14.5665L19.2283 17.7484C19.637 18.1571 19.637 18.8196 19.2283 19.2283C18.8196 19.637 18.1571 19.637 17.7484 19.2283L14.26 15.74C14.0637 15.5438 13.9535 15.2775 13.9535 15V9.4186C13.9535 8.84064 14.422 8.37209 15 8.37209Z" fill="#1C274C"/>
</svg>
