<svg width="356" height="98" viewBox="0 0 356 98" fill="none" xmlns="http://www.w3.org/2000/svg">
<path d="M11.3246 63.904C10.4179 63.904 9.4905 63.8461 8.54253 63.7301C5.94592 63.421 4.02938 62.7061 2.7929 61.5855C1.59763 60.4649 1 59.2477 1 57.9339C1 56.5042 1.68006 55.2097 3.04019 54.0504C4.40032 52.8526 6.31686 52.2536 8.78982 52.2536C10.4385 52.2536 12.2314 52.5628 14.1685 53.181C15.2401 53.5288 16.5178 54.1084 18.0016 54.9199C19.4854 55.7314 21.1958 56.5815 23.133 57.4702C25.1938 55.6154 27.0691 53.3163 28.759 50.5727C30.4901 47.8292 32.2005 44.8924 33.8904 41.7624C35.6214 38.5938 37.4762 35.4252 39.4545 32.2566C41.4741 29.088 43.8028 26.1126 46.4406 23.3304L50.0264 19.5629C48.5014 19.331 46.9146 19.1572 45.266 19.0412C43.6174 18.8867 41.9069 18.8094 40.1346 18.8094C37.9089 18.8094 35.6214 18.9253 33.2721 19.1572C30.9228 19.3504 28.5735 19.6788 26.2242 20.1425C22.3499 20.9154 19.0732 22.1519 16.3942 23.8521C13.7151 25.5523 11.6749 27.4071 10.2736 29.4165C8.91347 31.3872 8.23341 33.242 8.23341 34.9809C8.23341 36.1787 8.58374 37.2607 9.28442 38.2267C10.0263 39.1541 11.1185 39.8304 12.5611 40.2554C13.4678 40.5259 14.3952 40.6612 15.3432 40.6612C16.7445 40.6612 17.981 40.3907 19.0526 39.8497C20.1242 39.3087 21.031 38.6518 21.7729 37.879C22.5148 37.0675 23.0506 36.2947 23.3803 35.5605C23.7512 34.8263 23.9161 34.2853 23.8749 33.9375C23.8749 33.6671 24.081 33.5318 24.4931 33.5318C24.9053 33.5318 25.1114 33.8216 25.1114 34.4012V34.4592C25.1114 36.0435 24.5962 37.4153 23.5658 38.5745C22.5354 39.7338 21.2371 40.6225 19.6709 41.2408C18.1459 41.859 16.6003 42.1682 15.034 42.1682C14.0449 42.1682 13.0145 42.0136 11.9428 41.7045C9.71718 40.9703 8.06854 39.9077 6.99693 38.5166C5.92531 37.0868 5.3895 35.5218 5.3895 33.8216C5.3895 32.2373 5.84288 30.6144 6.74963 28.9528C7.6976 27.2526 9.07834 25.6489 10.8918 24.1419C12.7053 22.5963 14.9516 21.2631 17.6307 20.1425C20.3509 19.0219 23.4833 18.2298 27.0279 17.7661C28.9238 17.4956 30.7992 17.3024 32.6539 17.1864C34.5086 17.0705 36.3015 17.0126 38.0326 17.0126C40.4231 17.0126 42.7518 17.1285 45.0187 17.3603C47.3268 17.5535 49.4906 17.8627 51.5102 18.2877C52.0872 17.824 52.6643 17.4183 53.2413 17.0705C53.8595 16.7227 54.4159 16.4523 54.9105 16.259C55.199 16.1431 55.4463 16.0658 55.6524 16.0272C55.8585 15.9886 56.0234 15.9692 56.147 15.9692C56.3943 15.9692 56.518 16.0465 56.518 16.2011C56.518 16.3943 56.2088 16.7034 55.5906 17.1285C55.1784 17.399 54.7869 17.7081 54.4159 18.0559C54.045 18.365 53.8183 18.5969 53.7359 18.7514C57.9399 19.7561 61.3402 21.1472 63.9368 22.9247C66.5747 24.6636 67.8936 26.7309 67.8936 29.1267C67.8936 30.3632 67.4608 31.7157 66.5953 33.184C65.6885 34.6138 64.4314 35.773 62.824 36.6618C61.2166 37.5119 59.5061 38.1495 57.6926 38.5745C55.8791 38.9609 54.1893 39.1928 52.623 39.2701C53.9832 39.6565 55.467 40.2361 57.0744 41.0089C58.723 41.7431 60.2274 42.6512 61.5875 43.7332C62.9889 44.8151 63.9162 46.0903 64.3696 47.5587C64.6581 48.4861 64.8024 49.4328 64.8024 50.3988C64.8024 52.4468 64.1635 54.3016 62.8858 55.9632C61.6494 57.6248 59.9801 59.0545 57.8781 60.2524C55.8173 61.4117 53.5504 62.3004 51.0774 62.9187C48.6045 63.5756 46.1521 63.904 43.7204 63.904C42.8136 63.904 41.8863 63.8461 40.9383 63.7301C36.9816 63.2664 33.7049 62.6868 31.1083 61.9913C28.5529 61.2957 26.3066 60.5229 24.3695 59.6728C20.3715 62.4936 16.0232 63.904 11.3246 63.904ZM42.8549 62.2231C45.4102 62.2231 47.739 61.856 49.841 61.1218C51.943 60.3877 53.7565 59.4216 55.2815 58.2237C56.8477 57.0258 58.043 55.6927 58.8673 54.2243C59.7328 52.756 60.1656 51.3069 60.1656 49.8772C60.1656 48.5247 59.7328 47.2109 58.8673 45.9357C58.0017 44.6606 56.6416 43.5979 54.7869 42.7478C53.1795 42.0136 51.5102 41.4147 49.7791 40.951C48.0893 40.4486 46.6261 40.0236 45.3896 39.6758C44.1532 39.2894 43.4319 38.903 43.2258 38.5166C43.2258 38.0529 43.4319 37.7437 43.844 37.5892C44.2974 37.396 44.8744 37.2994 45.5751 37.2994C46.3994 37.2994 47.3886 37.3573 48.5427 37.4732C49.6967 37.5892 50.9126 37.6471 52.1903 37.6471C53.5092 37.6471 54.8487 37.3766 56.2088 36.8357C57.6102 36.256 58.8879 35.5025 60.0419 34.5751C61.196 33.6091 62.1233 32.5658 62.824 31.4452C63.5659 30.2859 63.9368 29.1074 63.9368 27.9095C63.9368 26.8275 63.5453 25.7649 62.7622 24.7215C61.9791 23.6782 60.6808 22.7701 58.8673 21.9973C57.0538 21.2245 55.096 20.6062 52.994 20.1425C50.9332 22.8088 48.8724 25.8035 46.8116 29.1267C44.7508 32.4112 42.69 35.7537 40.6292 39.1541C38.5684 42.516 36.487 45.7039 34.385 48.7179C32.2829 51.732 30.1809 54.3209 28.0789 56.4849C27.5843 56.9872 27.1928 57.3736 26.9043 57.6441C26.6157 57.876 26.2242 58.2044 25.7296 58.6295C27.6668 59.3637 29.8718 60.0592 32.3448 60.7161C34.8177 61.373 37.641 61.8367 40.8147 62.1072C41.1444 62.1458 41.4741 62.1652 41.8038 62.1652C42.1748 62.2038 42.5251 62.2231 42.8549 62.2231ZM10.0881 62.1072C12.3962 62.2231 14.4982 61.972 16.3942 61.3537C18.3313 60.6968 20.1242 59.7887 21.7729 58.6295C20.3303 57.9726 18.8465 57.2963 17.3215 56.6008C15.8378 55.8666 14.2509 55.2097 12.5611 54.6301C11.3658 54.2437 10.2736 54.0504 9.28442 54.0504C7.75942 54.0504 6.60538 54.4369 5.82227 55.2097C5.03917 55.9439 4.64762 56.794 4.64762 57.76C4.64762 58.7647 5.10099 59.7308 6.00774 60.6581C6.9145 61.5469 8.27462 62.0299 10.0881 62.1072Z" fill="white"/>
<path d="M74.6865 61.8174C72.9554 61.8174 71.7808 61.3923 71.1625 60.5422C70.5443 59.6535 70.2352 58.6101 70.2352 57.4123C70.2352 56.1757 70.4206 54.9006 70.7916 53.5867C71.1625 52.2729 71.4922 51.1717 71.7808 50.2829C72.4402 48.119 73.2645 45.8198 74.2537 43.3854C75.2841 40.9123 76.3969 38.4972 77.5922 36.1401C78.8287 33.7443 80.0446 31.5997 81.2398 29.7063C82.1878 28.1993 83.1976 27.0787 84.2692 26.3445C85.382 25.5717 86.3506 25.1852 87.1749 25.1852C87.8344 25.1852 88.3496 25.4171 88.7205 25.8808C89.1327 26.3058 89.3388 26.9627 89.3388 27.8515C89.3388 28.4698 89.2151 29.204 88.9678 30.0541C88.7617 30.9042 88.3908 31.8702 87.855 32.9522C86.4124 35.9662 84.6814 38.9803 82.6618 41.9943C80.6834 45.0083 78.1692 47.8292 75.1193 50.4568C74.9544 50.9591 74.7277 51.5581 74.4392 52.2536C74.1919 52.9105 73.9652 53.5867 73.7591 54.2823C73.5118 55.3256 73.3882 56.2144 73.3882 56.9486C73.3882 58.1464 73.6355 59.0545 74.1301 59.6728C74.6659 60.2524 75.3047 60.5422 76.0466 60.5422C76.7061 60.5422 77.4067 60.3297 78.1486 59.9046C78.8905 59.4409 79.5912 58.784 80.2506 57.9339C81.2398 56.5815 82.126 55.2097 82.9091 53.8186C83.7334 52.3889 84.3516 51.2876 84.7638 50.5147C85.0111 50.0897 85.279 49.8772 85.5675 49.8772C85.7736 49.8772 85.8766 49.9931 85.8766 50.2249C85.8766 50.4181 85.8148 50.6307 85.6912 50.8625C85.3202 51.6354 84.8256 52.64 84.2074 53.8766C83.6304 55.0744 82.8885 56.2917 81.9817 57.5282C81.1162 58.7261 80.0652 59.7501 78.8287 60.6002C77.6334 61.4117 76.2527 61.8174 74.6865 61.8174ZM75.6138 48.602C77.0976 47.1723 78.5402 45.53 79.9415 43.6752C81.3429 41.7818 82.6412 39.8304 83.8364 37.821C85.0729 35.773 86.1033 33.8409 86.9276 32.0248C87.2161 31.4452 87.4428 30.8076 87.6077 30.112C87.8138 29.4165 87.9168 28.8369 87.9168 28.3732C87.9168 27.8322 87.7726 27.5617 87.4841 27.5617C87.3192 27.5617 87.0719 27.7163 86.7422 28.0254C86.4124 28.2959 85.9797 28.7789 85.4439 29.4744C84.6608 30.4405 83.7952 31.7543 82.8473 33.4159C81.9405 35.0775 81.0131 36.855 80.0652 38.7484C79.1172 40.6418 78.2517 42.4773 77.4686 44.2548C76.6855 45.9937 76.0672 47.4427 75.6138 48.602Z" fill="white"/>
<path d="M90.8158 61.6435C89.2496 61.6435 88.0955 61.1605 87.3536 60.1944C86.6118 59.1898 86.2408 57.9726 86.2408 56.5428C86.2408 54.804 86.6736 52.9878 87.5391 51.0944C88.3634 49.3169 89.4144 47.6939 90.6921 46.2255C91.9698 44.7572 93.3506 43.5786 94.8344 42.6898C96.3181 41.7624 97.7607 41.2987 99.162 41.2987C100.728 41.2987 101.882 41.7818 102.624 42.7478C103.366 43.7138 103.737 44.931 103.737 46.3994C103.737 48.1769 103.304 49.9931 102.439 51.8479C101.944 52.8912 101.243 54.0504 100.337 55.3256C99.4299 56.5621 98.3995 57.7021 97.2455 58.7454C97.4928 59.1704 97.8431 59.5375 98.2965 59.8467C98.7499 60.1172 99.3681 60.2524 100.151 60.2524C101.14 60.2524 102.068 59.866 102.933 59.0932C103.84 58.3203 104.664 57.3929 105.406 56.311C106.148 55.1904 106.808 54.0698 107.385 52.9492C107.962 51.8286 108.436 50.9205 108.807 50.2249C108.93 49.9931 109.136 49.8772 109.425 49.8772C109.59 49.8772 109.713 49.9544 109.796 50.109C109.878 50.2249 109.858 50.4181 109.734 50.6886C109.487 51.2683 109.074 52.1377 108.497 53.2969C107.92 54.4175 107.22 55.5961 106.395 56.8326C105.571 58.0305 104.623 59.0545 103.552 59.9046C102.48 60.7547 101.285 61.1798 99.9657 61.1798C99.059 61.1798 98.2759 61.0446 97.6164 60.7741C96.957 60.4649 96.4212 60.0978 96.009 59.6728C95.1435 60.291 94.2779 60.7741 93.4124 61.1218C92.5469 61.4696 91.6813 61.6435 90.8158 61.6435ZM91.7432 60.3683C92.856 60.3683 94.0512 59.866 95.3289 58.8613C94.9992 58.3976 94.7519 57.9146 94.5871 57.4123C94.4222 56.9099 94.3398 56.4462 94.3398 56.0212C94.3398 55.3256 94.5046 54.7267 94.8344 54.2243C95.2053 53.722 95.7617 53.4708 96.5036 53.4708C97.0394 53.4708 97.4722 53.664 97.8019 54.0504C98.1728 54.3982 98.3583 54.804 98.3583 55.2677C98.3583 55.3836 98.3377 55.4995 98.2965 55.6154C98.2965 55.6927 98.2759 55.7893 98.2347 55.9052C98.9353 55.0165 99.5948 53.9732 100.213 52.7753C101.573 50.0317 102.253 47.7712 102.253 45.9937C102.253 45.1049 102.068 44.4094 101.697 43.907C101.326 43.4047 100.769 43.1535 100.028 43.1535C99.162 43.1535 98.2141 43.5013 97.1837 44.1969C96.1945 44.8924 95.2259 45.8198 94.2779 46.979C93.3712 48.1383 92.5675 49.4328 91.8668 50.8625C91.2073 52.1763 90.6715 53.4515 90.2594 54.688C89.8884 55.8859 89.703 56.9292 89.703 57.818C89.703 58.5908 89.8678 59.2091 90.1975 59.6728C90.5273 60.1365 91.0425 60.3683 91.7432 60.3683Z" fill="white"/>
<path d="M114.616 61.6435C113.049 61.6435 111.895 61.1605 111.153 60.1944C110.412 59.1898 110.041 57.9726 110.041 56.5428C110.041 54.804 110.473 52.9878 111.339 51.0944C112.163 49.3169 113.214 47.6939 114.492 46.2255C115.77 44.7572 117.15 43.5786 118.634 42.6898C120.118 41.7624 121.561 41.2987 122.962 41.2987C124.528 41.2987 125.682 41.7818 126.424 42.7478C127.166 43.7138 127.537 44.931 127.537 46.3994C127.537 48.1769 127.104 49.9931 126.239 51.8479C125.744 52.8912 125.043 54.0504 124.137 55.3256C123.23 56.5621 122.199 57.7021 121.045 58.7454C121.293 59.1704 121.643 59.5375 122.096 59.8467C122.55 60.1172 123.168 60.2524 123.951 60.2524C124.94 60.2524 125.868 59.866 126.733 59.0932C127.64 58.3203 128.464 57.3929 129.206 56.311C129.948 55.1904 130.607 54.0698 131.184 52.9492C131.761 51.8286 132.235 50.9205 132.606 50.2249C132.73 49.9931 132.936 49.8772 133.225 49.8772C133.39 49.8772 133.513 49.9544 133.596 50.109C133.678 50.2249 133.657 50.4181 133.534 50.6886C133.286 51.2683 132.874 52.1377 132.297 53.2969C131.72 54.4175 131.02 55.5961 130.195 56.8326C129.371 58.0305 128.423 59.0545 127.351 59.9046C126.28 60.7547 125.084 61.1798 123.766 61.1798C122.859 61.1798 122.076 61.0446 121.416 60.7741C120.757 60.4649 120.221 60.0978 119.809 59.6728C118.943 60.291 118.078 60.7741 117.212 61.1218C116.347 61.4696 115.481 61.6435 114.616 61.6435ZM115.543 60.3683C116.656 60.3683 117.851 59.866 119.129 58.8613C118.799 58.3976 118.552 57.9146 118.387 57.4123C118.222 56.9099 118.14 56.4462 118.14 56.0212C118.14 55.3256 118.304 54.7267 118.634 54.2243C119.005 53.722 119.562 53.4708 120.303 53.4708C120.839 53.4708 121.272 53.664 121.602 54.0504C121.973 54.3982 122.158 54.804 122.158 55.2677C122.158 55.3836 122.138 55.4995 122.096 55.6154C122.096 55.6927 122.076 55.7893 122.035 55.9052C122.735 55.0165 123.395 53.9732 124.013 52.7753C125.373 50.0317 126.053 47.7712 126.053 45.9937C126.053 45.1049 125.868 44.4094 125.497 43.907C125.126 43.4047 124.569 43.1535 123.827 43.1535C122.962 43.1535 122.014 43.5013 120.983 44.1969C119.994 44.8924 119.026 45.8198 118.078 46.979C117.171 48.1383 116.367 49.4328 115.667 50.8625C115.007 52.1763 114.471 53.4515 114.059 54.688C113.688 55.8859 113.503 56.9292 113.503 57.818C113.503 58.5908 113.668 59.2091 113.997 59.6728C114.327 60.1365 114.842 60.3683 115.543 60.3683Z" fill="white"/>
<path d="M129.636 61.9333C131.161 59.1898 132.604 56.4462 133.964 53.7027C135.324 50.9205 136.705 48.2929 138.106 45.8198C138.931 44.4287 139.611 43.4627 140.147 42.9217C140.724 42.3421 141.486 42.0523 142.434 42.0523C142.764 42.0523 143.114 42.1102 143.485 42.2261C143.856 42.3034 144.227 42.3421 144.598 42.3421C144.845 42.3421 145.031 42.3227 145.154 42.2841C144.577 42.5932 143.835 43.3661 142.929 44.6026C142.022 45.8005 141.094 47.1916 140.147 48.7759C139.199 50.3602 138.354 51.8479 137.612 53.239C138.395 52.3502 139.199 51.4615 140.023 50.5727C140.888 49.684 141.836 48.8338 142.867 48.0224C143.774 47.2882 144.721 46.496 145.711 45.6459C146.741 44.7572 147.751 44.0037 148.74 43.3854C149.729 42.7671 150.595 42.458 151.337 42.458C151.625 42.458 151.811 42.4773 151.893 42.516C152.676 42.8251 153.068 43.3274 153.068 44.023C153.068 44.2548 152.965 44.6026 152.759 45.0663C152.223 46.3801 151.522 47.7326 150.657 49.1237C149.832 50.4761 149.049 51.8479 148.307 53.239C148.926 52.5434 149.688 51.6933 150.595 50.6886C151.543 49.684 152.491 48.7952 153.439 48.0224C154.345 47.2495 155.499 46.4381 156.901 45.588C158.302 44.7378 159.683 44.0037 161.043 43.3854C162.403 42.7671 163.495 42.458 164.32 42.458C164.608 42.458 164.814 42.4773 164.938 42.516C164.938 42.516 164.711 42.9024 164.258 43.6752C163.805 44.4094 163.227 45.3947 162.527 46.6313C161.867 47.8292 161.187 49.1237 160.487 50.5147C159.786 51.8672 159.147 53.181 158.57 54.4562C158.034 55.6927 157.684 56.736 157.519 57.5861C157.395 58.0885 157.334 58.5522 157.334 58.9772C157.334 59.5955 157.457 60.0012 157.705 60.1944C157.952 60.3877 158.22 60.4843 158.508 60.4843C159.333 60.4843 160.178 60.0785 161.043 59.267C161.909 58.4556 162.733 57.4895 163.516 56.3689C164.34 55.2097 165.062 54.0891 165.68 53.0071C166.298 51.8865 166.751 51.0364 167.04 50.4568C167.287 50.0317 167.535 49.8192 167.782 49.8192C168.029 49.8192 168.153 49.9738 168.153 50.2829C168.153 50.4761 168.091 50.6886 167.967 50.9205C167.473 51.8092 166.875 52.8719 166.174 54.1084C165.515 55.3449 164.752 56.5621 163.887 57.76C163.021 58.9193 162.053 59.9046 160.981 60.7161C159.951 61.4889 158.838 61.8754 157.643 61.8754C156.777 61.8754 155.891 61.6049 154.984 61.0639C154.119 60.5229 153.686 59.5182 153.686 58.0498C153.686 57.2384 153.871 56.253 154.242 55.0938C154.531 54.3209 154.964 53.4322 155.541 52.4275C156.159 51.4228 156.901 50.2636 157.766 48.9498C158.179 48.2929 158.385 47.7712 158.385 47.3848C158.385 46.9211 158.137 46.6892 157.643 46.6892C157.231 46.6892 156.654 46.8824 155.912 47.2689C155.211 47.6553 154.325 48.3315 153.253 49.2975C152.594 49.8772 151.811 50.6886 150.904 51.732C150.038 52.7366 149.152 53.8379 148.245 55.0358C147.339 56.2337 146.556 57.4123 145.896 58.5715C145.237 59.7307 144.804 60.7547 144.598 61.6435C143.98 61.6435 143.485 61.4117 143.114 60.948C142.743 60.4456 142.558 59.866 142.558 59.2091C142.558 59.0932 142.558 58.9772 142.558 58.8613C142.558 58.7454 142.578 58.6101 142.619 58.4556C142.826 57.2577 143.155 56.1371 143.609 55.0938C144.062 54.0504 144.577 52.9685 145.154 51.8479C145.608 51.0364 146.061 50.167 146.514 49.2396C146.968 48.2735 147.194 47.5394 147.194 47.037C147.194 46.7279 147.071 46.5733 146.824 46.5733C146.535 46.5733 146.061 46.7858 145.402 47.2109C144.742 47.5973 143.835 48.2929 142.681 49.2975C141.651 50.2249 140.394 51.5581 138.91 53.2969C137.467 55.0358 135.881 57.5089 134.15 60.7161C133.902 61.1412 133.614 61.4117 133.284 61.5276C132.954 61.6049 132.439 61.6435 131.738 61.6435C131.285 61.6435 130.914 61.6435 130.626 61.6435C130.296 61.6821 129.966 61.7787 129.636 61.9333Z" fill="white"/>
<path d="M176.919 38.1108C176.301 38.1108 175.785 37.9176 175.373 37.5312C175.002 37.1061 174.817 36.6038 174.817 36.0242C174.817 35.29 175.126 34.6524 175.744 34.1114C176.362 33.5704 177.042 33.3 177.784 33.3C178.444 33.3 178.98 33.4932 179.392 33.8796C179.804 34.266 180.01 34.7297 180.01 35.2707C180.01 36.0049 179.701 36.6618 179.083 37.2414C178.464 37.821 177.743 38.1108 176.919 38.1108ZM171.911 61.6435C170.386 61.6435 169.314 61.2378 168.696 60.4263C168.078 59.5762 167.769 58.6101 167.769 57.5282C167.769 56.9486 167.831 56.3689 167.954 55.7893C168.119 55.171 168.305 54.6107 168.511 54.1084L172.653 44.1969C172.777 43.8877 172.838 43.6172 172.838 43.3854C172.838 42.999 172.735 42.6705 172.529 42.4C172.323 42.0909 172.179 41.8784 172.096 41.7624L175.497 41.6465C176.115 41.6079 176.548 41.6852 176.795 41.8784C177.084 42.0329 177.228 42.2261 177.228 42.458C177.228 42.6898 177.084 43.1149 176.795 43.7332L171.664 55.0358C171.664 55.0358 171.54 55.287 171.293 55.7893C171.087 56.253 170.963 56.5621 170.922 56.7167C170.798 57.2963 170.716 57.6634 170.675 57.818C170.633 57.9726 170.613 58.0692 170.613 58.1078C170.613 58.1464 170.613 58.301 170.613 58.5715C170.613 59.0738 170.736 59.4989 170.984 59.8467C171.272 60.1944 171.746 60.3683 172.406 60.3683C172.818 60.3683 173.292 60.2524 173.828 60.0206C174.363 59.7887 174.755 59.5569 175.002 59.325C176.033 58.3203 177.042 57.0065 178.032 55.3836C179.062 53.722 180.01 52.0797 180.875 50.4568C181.04 50.0704 181.246 49.8772 181.494 49.8772C181.7 49.8772 181.803 50.0124 181.803 50.2829C181.803 50.4375 181.741 50.6693 181.617 50.9784C181.205 51.7899 180.69 52.7946 180.072 53.9925C179.454 55.1904 178.712 56.3883 177.846 57.5861C177.022 58.7454 176.115 59.7114 175.126 60.4843C174.137 61.2571 173.065 61.6435 171.911 61.6435Z" fill="white"/>
<path d="M178.08 62.1072C179.564 59.2864 180.986 56.5042 182.346 53.7606C183.747 50.9784 185.169 48.3315 186.612 45.8198C187.436 44.4287 188.116 43.4627 188.652 42.9217C189.229 42.3421 189.991 42.0523 190.939 42.0523C191.269 42.0523 191.619 42.1102 191.99 42.2261C192.361 42.3034 192.732 42.3421 193.103 42.3421C193.35 42.3421 193.536 42.3227 193.66 42.2841C193.083 42.5932 192.341 43.3661 191.434 44.6026C190.527 45.8005 189.6 47.1916 188.652 48.7759C187.704 50.3602 186.859 51.8479 186.117 53.239C186.9 52.3502 187.704 51.4615 188.528 50.5727C189.394 49.684 190.342 48.8338 191.372 48.0224C192.361 47.2109 193.536 46.3801 194.896 45.53C196.297 44.6412 197.657 43.907 198.976 43.3274C200.295 42.7478 201.346 42.458 202.129 42.458C202.418 42.458 202.624 42.4773 202.748 42.516C202.748 42.516 202.521 42.9024 202.068 43.6752C201.614 44.4094 201.037 45.3947 200.337 46.6313C199.677 47.8292 198.997 49.1237 198.296 50.5147C197.596 51.8672 196.957 53.181 196.38 54.4562C195.844 55.6927 195.494 56.736 195.329 57.5861C195.205 58.0885 195.143 58.5522 195.143 58.9772C195.143 59.5955 195.267 60.0012 195.514 60.1944C195.762 60.3877 196.029 60.4843 196.318 60.4843C197.101 60.4843 197.925 60.0978 198.791 59.325C199.656 58.5135 200.481 57.5282 201.264 56.3689C202.088 55.2097 202.809 54.0891 203.428 53.0071C204.087 51.8865 204.561 51.0364 204.85 50.4568C205.015 50.1477 205.138 49.9738 205.221 49.9351C205.303 49.8578 205.427 49.8192 205.592 49.8192C205.839 49.8192 205.963 49.9738 205.963 50.2829C205.963 50.4761 205.901 50.6886 205.777 50.9205C205.282 51.8092 204.685 52.8719 203.984 54.1084C203.325 55.3449 202.562 56.5621 201.697 57.76C200.831 58.9193 199.883 59.9046 198.853 60.7161C197.822 61.4889 196.71 61.8754 195.514 61.8754C194.69 61.8754 193.824 61.6049 192.918 61.0639C192.052 60.5229 191.619 59.5182 191.619 58.0498C191.619 57.6248 191.661 57.1804 191.743 56.7167C191.825 56.2144 191.97 55.6734 192.176 55.0938C192.505 54.3209 192.897 53.4901 193.35 52.6014C193.804 51.7126 194.546 50.4954 195.576 48.9498C195.865 48.5247 196.029 48.1963 196.071 47.9644C196.153 47.7326 196.194 47.5394 196.194 47.3848C196.194 46.9211 195.968 46.6892 195.514 46.6892C195.143 46.6892 194.587 46.8824 193.845 47.2689C193.144 47.6553 192.258 48.3315 191.187 49.2975C190.156 50.2249 188.92 51.5387 187.477 53.239C186.076 54.9392 184.448 57.4509 182.593 60.7741C182.305 61.2764 181.975 61.5469 181.604 61.5855C181.274 61.6242 180.8 61.6628 180.182 61.7015C179.77 61.7401 179.378 61.7594 179.007 61.7594C178.636 61.7981 178.327 61.914 178.08 62.1072Z" fill="white"/>
<path d="M203.609 80.1335C199.694 80.1335 197.736 78.6264 197.736 75.6124C197.736 74.1827 198.272 72.9075 199.343 71.7869C200.415 70.6663 201.693 69.7003 203.177 68.8888C205.237 67.7295 207.236 66.8021 209.173 66.1066C211.111 65.4111 212.945 64.7928 214.676 64.2518C216.448 63.7495 218.117 63.1892 219.684 62.5709C220.425 60.5229 220.92 58.3783 221.167 56.1371C221.291 54.9778 221.353 53.9732 221.353 53.1231C221.353 52.2343 221.291 51.6547 221.167 51.3842C220.714 52.1957 220.116 53.181 219.374 54.3403C218.633 55.4995 217.788 56.6394 216.84 57.76C215.892 58.842 214.861 59.7501 213.748 60.4843C212.677 61.2184 211.564 61.5855 210.41 61.5855C209.998 61.5855 209.606 61.5276 209.235 61.4117C208.081 60.948 207.236 60.2911 206.701 59.4409C206.206 58.5908 205.959 57.6248 205.959 56.5428C205.959 54.804 206.494 52.9298 207.566 50.9205C208.638 48.9111 209.915 47.0757 211.399 45.4141C212.594 44.0616 213.996 42.9797 215.603 42.1682C217.211 41.3567 218.839 40.951 220.487 40.951C222.383 40.951 224.156 41.5499 225.804 42.7478C226.422 43.2115 226.732 43.7138 226.732 44.2548C226.732 44.8344 226.484 45.1243 225.99 45.1243C225.577 45.1243 225.289 44.8731 225.124 44.3707C224.547 42.941 223.62 42.2261 222.342 42.2261C221.312 42.2261 220.137 42.6512 218.818 43.5013C217.499 44.3128 216.263 45.3368 215.109 46.5733C214.119 47.6166 213.151 48.8145 212.203 50.167C211.296 51.5194 210.534 52.8526 209.915 54.1664C209.338 55.4802 209.05 56.6201 209.05 57.5861C209.05 58.2431 209.215 58.8034 209.544 59.267C209.874 59.7307 210.389 59.9626 211.09 59.9626C212.038 59.9626 213.027 59.5375 214.058 58.6874C215.129 57.8373 216.139 56.794 217.087 55.5575C218.076 54.3209 218.921 53.0651 219.622 51.7899C220.364 50.5147 220.879 49.4521 221.167 48.602C221.456 47.7132 221.847 47.1723 222.342 46.979C222.837 46.7472 223.331 46.6313 223.826 46.6313C224.32 46.6313 224.733 46.5154 225.062 46.2835C225.227 47.1336 225.33 48.0031 225.371 48.8918C225.454 49.7419 225.495 50.6114 225.495 51.5001C225.495 54.4755 225.083 57.4702 224.259 60.4843C225 59.9433 225.763 59.3637 226.546 58.7454C227.37 58.0885 228.071 57.3929 228.648 56.6587C229.678 55.3449 230.441 54.147 230.936 53.0651C231.471 51.9445 231.884 51.0751 232.172 50.4568C232.419 50.0704 232.687 49.8772 232.976 49.8772C233.223 49.8772 233.347 49.9931 233.347 50.2249C233.347 50.4181 233.264 50.65 233.099 50.9205C232.069 52.9685 231.121 54.7267 230.255 56.1951C229.39 57.6248 228.442 58.842 227.412 59.8467C226.381 60.8127 225.103 61.6435 223.578 62.339C222.919 64.1938 221.93 66.1452 220.611 68.1932C219.292 70.2412 217.746 72.1733 215.974 73.9895C214.202 75.8056 212.265 77.274 210.163 78.3946C208.061 79.5538 205.876 80.1335 203.609 80.1335ZM202.126 78.9742C203.032 78.9742 203.98 78.781 204.969 78.3946C206 78.0468 206.968 77.6218 207.875 77.1194C208.782 76.6171 209.483 76.192 209.977 75.8443C210.925 75.1487 211.894 74.2793 212.883 73.236C213.872 72.1926 214.738 71.188 215.48 70.2219C216.18 69.2945 216.84 68.3092 217.458 67.2658C218.117 66.2612 218.674 65.2565 219.127 64.2518C218.797 64.3677 218.385 64.503 217.891 64.6575C217.437 64.8121 217.108 64.928 216.901 65.0053C215.541 65.4304 214.037 65.9134 212.388 66.4544C210.781 67.034 209.173 67.6523 207.566 68.3092C205.959 69.0047 204.495 69.7582 203.177 70.5697C202.023 71.3039 201.075 72.2699 200.333 73.4678C199.55 74.6657 199.158 75.709 199.158 76.5978C199.158 77.2547 199.405 77.815 199.9 78.2787C200.353 78.7424 201.095 78.9742 202.126 78.9742Z" fill="white"/>
<path d="M354.988 48.7506C355.03 48.2638 354.958 47.7389 354.822 47.2181C354.666 46.6932 354.395 46.1764 354.03 45.7017C353.651 45.2369 353.187 44.8303 352.681 44.4938C352.17 44.1732 351.632 43.8948 351.086 43.6985C349.992 43.2778 348.893 43.0815 347.826 42.9573C346.757 42.8451 345.71 42.8251 344.688 42.8651C342.639 42.9452 340.684 43.2597 338.782 43.6584C336.879 44.063 335.033 44.5699 333.235 45.1548C326.048 47.5126 319.581 51.0482 314.047 55.3591C311.336 57.5005 308.751 59.686 306.22 61.9356C303.698 64.1832 301.249 66.4789 298.85 68.7986C294.043 73.43 289.483 78.1956 284.671 82.6828C284.222 83.0974 283.755 83.492 283.301 83.8987C285.437 81.0862 287.29 78.1195 288.724 74.9905C289.672 72.9212 290.421 70.7818 290.925 68.5923C291.421 66.4028 291.671 64.1631 291.599 61.9195C291.572 60.7978 291.455 59.676 291.262 58.5622C291.175 58.0033 291.044 57.4524 290.92 56.8975C290.773 56.3487 290.632 55.7958 290.448 55.2549C290.285 54.708 290.071 54.1732 289.87 53.6343C289.645 53.1035 289.431 52.5687 289.171 52.0478L288.444 50.5514C288.211 50.0646 287.958 49.5839 287.742 49.0931C286.822 47.144 286.015 45.1708 285.301 43.1817C284.591 41.1925 283.999 39.1832 283.584 37.158C282.741 33.1155 282.58 29.009 283.413 25.0286C284.222 21.0443 286.075 17.2302 288.6 13.6905C288.873 13.3099 289.178 12.9413 289.463 12.5667C289.277 13.0655 289.077 13.5603 288.9 14.0611C287.467 18.1957 286.373 22.4445 286.07 26.8235C285.926 29.011 285.981 31.2345 286.41 33.4601C286.836 35.6796 287.633 37.9172 289.037 39.9765C289.739 41.0022 290.59 41.9757 291.582 42.8531C292.572 43.7305 293.698 44.5077 294.914 45.1628C296.129 45.8158 297.421 46.3627 298.756 46.7834C300.091 47.2 301.455 47.5266 302.857 47.757C305.665 48.1897 308.582 48.2177 311.373 47.805C312.769 47.6047 314.139 47.3162 315.463 46.9496C316.786 46.577 318.068 46.1323 319.306 45.6355C320.549 45.1407 321.735 44.5779 322.888 43.9829C324.042 43.388 325.153 42.7489 326.225 42.0778C328.373 40.7397 330.37 39.2734 332.258 37.7349C336.028 34.654 339.362 31.2886 342.404 27.781C343.924 26.0262 345.373 24.2334 346.75 22.4065C347.437 21.493 348.109 20.5695 348.761 19.638C349.089 19.1713 349.409 18.7025 349.726 18.2297C350.046 17.753 350.349 17.2902 350.667 16.7794C350.972 16.2866 350.964 15.6797 350.577 15.1789C349.987 14.4097 348.734 14.1753 347.784 14.6521L347.764 14.6621C347.457 14.8163 347.075 14.9946 346.722 15.1589C346.36 15.3251 345.996 15.4874 345.626 15.6496C344.887 15.9681 344.14 16.2826 343.386 16.5811C341.875 17.1821 340.337 17.739 338.779 18.2518C335.661 19.2714 332.461 20.1228 329.209 20.7117C327.584 21.0162 325.944 21.2386 324.305 21.3969C322.662 21.5651 321.018 21.6212 319.383 21.6131L318.157 21.5891L316.942 21.515C316.535 21.499 316.136 21.4489 315.734 21.4068L314.831 21.3107L313.345 21.0803C312.951 21.0162 312.566 20.922 312.177 20.8459L311.594 20.7257C311.403 20.6797 311.214 20.6256 311.023 20.5755C310.643 20.4734 310.261 20.3772 309.884 20.269C306.913 19.3576 303.946 18.0274 302.122 16.2546C301.676 15.8119 301.306 15.3471 301.053 14.8724C300.81 14.3956 300.656 13.9149 300.646 13.4341C300.597 12.4766 301.071 11.499 301.919 10.6136C302.762 9.72415 303.961 8.95696 305.283 8.32194C306.61 7.68292 308.088 7.18409 309.614 6.77944C312.683 5.98217 315.974 5.58955 319.286 5.50341C320.943 5.46535 322.608 5.50545 324.272 5.57757C325.934 5.65369 327.621 5.75985 329.266 5.92211C330.913 6.08638 332.538 6.31872 334.073 6.66928C334.84 6.84556 335.582 7.05189 336.266 7.30029C336.946 7.54869 337.584 7.83915 338.075 8.17168C338.571 8.50421 338.903 8.86282 339.05 9.21338C339.194 9.56394 339.181 9.96254 338.978 10.4253C338.782 10.884 338.392 11.3668 337.921 11.8195C337.44 12.2703 336.874 12.6989 336.249 13.0876C335.006 13.8708 333.572 14.5179 332.074 15.0407C330.573 15.5655 328.991 15.9602 327.378 16.2246C326.986 16.2947 326.54 16.3427 326.12 16.4109C325.691 16.483 325.292 16.5351 324.883 16.5851C324.066 16.6833 323.238 16.7434 322.409 16.7714C320.747 16.8275 319.07 16.7574 317.413 16.5631C315.759 16.3668 314.116 16.0483 312.568 15.5715C311.799 15.3271 311.048 15.0467 310.381 14.6981C310.046 14.5258 309.731 14.3336 309.47 14.1252C309.212 13.9189 308.994 13.6865 308.914 13.4762C308.83 13.2658 308.847 13.0916 309.004 12.8892C309.155 12.6889 309.438 12.4926 309.763 12.3304C310.415 11.9978 311.219 11.7794 312.023 11.5971C313.65 11.2426 315.362 11.0623 317.073 10.9341C318.788 10.8119 320.517 10.7578 322.243 10.7378C323.972 10.7178 325.704 10.7318 327.435 10.7698C323.985 10.5114 320.519 10.3371 317.034 10.4093C315.292 10.4553 313.541 10.5495 311.795 10.8399C311.576 10.874 311.358 10.9161 311.14 10.9621C310.921 11.0042 310.703 11.0583 310.487 11.1124C310.053 11.2246 309.619 11.3568 309.195 11.5451C308.776 11.7334 308.344 11.9658 308.007 12.3464C307.833 12.5287 307.711 12.767 307.647 13.0134C307.597 13.2638 307.607 13.5243 307.689 13.7546C307.84 14.2234 308.165 14.5699 308.493 14.8684C308.828 15.1689 309.195 15.4133 309.574 15.6356C310.331 16.0823 311.14 16.4249 311.963 16.7294C313.615 17.3243 315.339 17.739 317.093 18.0275C318.847 18.3139 320.636 18.4701 322.439 18.4902C323.34 18.5002 324.245 18.4742 325.145 18.4081C325.597 18.374 326.056 18.3319 326.478 18.2818C326.912 18.2297 327.326 18.2057 327.787 18.1476C329.588 17.9353 331.357 17.5667 333.069 17.0499C334.78 16.529 336.442 15.872 337.99 14.9966C338.764 14.5599 339.506 14.0611 340.193 13.4801C340.87 12.8932 341.511 12.2201 341.95 11.3748C342.168 10.9541 342.332 10.4894 342.394 9.9946C342.458 9.49981 342.413 8.97695 342.25 8.48016C342.088 7.98336 341.813 7.52666 341.483 7.12802C341.153 6.73139 340.776 6.37683 340.372 6.08436C339.568 5.4834 338.7 5.05469 337.827 4.6901C336.953 4.32953 336.068 4.04509 335.182 3.8027C333.409 3.31993 331.63 2.99544 329.854 2.74504C328.073 2.49264 326.311 2.31632 324.518 2.22217C322.727 2.12802 320.923 2.128 319.12 2.19411C315.516 2.33233 311.886 2.73298 308.356 3.65445C306.595 4.1212 304.856 4.70416 303.204 5.49742C301.562 6.29069 299.974 7.27225 298.697 8.60438C298.066 9.27144 297.503 10.0166 297.126 10.858C296.928 11.2726 296.794 11.7154 296.69 12.1641C296.608 12.6148 296.548 13.0735 296.576 13.5343C296.6 14.4537 296.888 15.3512 297.31 16.1625C297.741 16.9718 298.324 17.6929 298.969 18.3319C300.274 19.6099 301.832 20.5715 303.435 21.3768C304.241 21.7754 305.064 22.13 305.895 22.4585C306.719 22.7891 307.6 23.0555 308.461 23.3439C308.9 23.4701 309.344 23.5823 309.785 23.7025C310.006 23.7606 310.227 23.8227 310.45 23.8748L311.125 24.015C311.576 24.1051 312.023 24.2113 312.477 24.2854L313.839 24.4958L314.178 24.5479L315.205 24.656C315.662 24.7041 316.118 24.7582 316.577 24.7782L317.952 24.8623L319.323 24.8884C321.149 24.8984 322.972 24.8323 324.768 24.65C326.564 24.4758 328.348 24.2354 330.097 23.9068C333.602 23.2698 337.003 22.3644 340.305 21.2847C341.471 20.9021 342.609 20.4653 343.748 20.0366C343.587 20.255 343.433 20.4774 343.269 20.6937C341.937 22.4625 340.536 24.1973 339.065 25.892C336.127 29.2774 332.922 32.5086 329.36 35.4172C327.579 36.8676 325.709 38.2397 323.729 39.4717C322.742 40.0927 321.727 40.6737 320.683 41.2125C319.641 41.7514 318.577 42.2561 317.48 42.6908C316.386 43.1295 315.267 43.5161 314.129 43.8387C312.988 44.1532 311.829 44.3975 310.658 44.5638C308.319 44.9124 305.94 44.8803 303.626 44.5298C302.472 44.3395 301.334 44.0671 300.235 43.7245C299.141 43.382 298.114 42.9413 297.159 42.4305C295.251 41.4048 293.696 40.0246 292.582 38.388C291.465 36.7514 290.783 34.8864 290.414 32.9533C290.039 31.0182 289.979 29.009 290.113 26.9958C290.389 22.9613 291.418 18.9128 292.797 14.9485C293.495 12.9653 294.286 10.9982 295.157 9.05511C295.593 8.08356 296.052 7.118 296.528 6.16047C296.769 5.6817 297.012 5.20498 297.26 4.73222C297.508 4.26347 297.771 3.77865 298.019 3.34396L298.027 3.32996C298.394 2.68893 298.215 1.90568 297.528 1.41289C296.687 0.811933 295.405 0.874047 294.66 1.55313C291.116 4.7843 287.779 8.22977 285.058 12.0479C282.339 15.8539 280.28 20.0687 279.387 24.4757C278.931 26.6733 278.74 28.9028 278.787 31.1164C278.831 33.3319 279.109 35.5314 279.558 37.6949C280.002 39.8603 280.63 41.9877 281.377 44.0771C282.126 46.1644 282.967 48.2257 283.922 50.2429C284.147 50.7517 284.405 51.2485 284.649 51.7533L285.36 53.2217C285.594 53.6844 285.782 54.1612 285.986 54.6339C286.162 55.1127 286.355 55.5875 286.497 56.0723C286.66 56.553 286.782 57.0418 286.916 57.5306C287.022 58.0214 287.144 58.5121 287.218 59.0069C287.39 59.9945 287.494 60.9921 287.519 61.9937C287.65 66.0001 286.638 70.0265 284.892 73.8486C283.14 77.6768 280.669 81.3126 277.777 84.72C276.328 86.4227 274.768 88.0693 273.118 89.6539C272.292 90.4451 271.444 91.2224 270.573 91.9776C270.137 92.3562 269.698 92.7288 269.251 93.0934L268.579 93.6342C268.358 93.8085 268.117 93.9968 267.919 94.143L267.904 94.1531C267.259 94.6338 267.053 95.4171 267.46 96.0861C267.959 96.8974 269.177 97.232 270.181 96.8293C273.739 95.4091 276.916 93.5201 279.781 91.4507C281.213 90.4111 282.577 89.3293 283.897 88.2216C285.209 87.1098 286.474 85.976 287.717 84.8302C290.185 82.5325 292.552 80.1908 294.899 77.853C297.245 75.5173 299.577 73.1856 301.951 70.8919C304.323 68.5982 306.734 66.3386 309.21 64.1331C311.685 61.9336 314.245 59.7721 316.855 57.7088C322.022 53.6784 328.115 50.3571 334.733 48.1916C336.383 47.6468 338.075 47.2041 339.777 46.8555C341.478 46.519 343.202 46.2886 344.874 46.2245C345.708 46.1944 346.529 46.1964 347.308 46.2645C348.082 46.3266 348.826 46.4508 349.429 46.6532C349.744 46.7473 349.994 46.8756 350.233 46.9978C350.453 47.13 350.632 47.2742 350.783 47.4284C350.917 47.5907 351.031 47.7629 351.111 47.9673C351.173 48.1796 351.24 48.404 351.23 48.6704C351.242 49.1892 351.096 49.7902 350.84 50.3972C350.585 51.0061 350.228 51.6211 349.821 52.2281C349.005 53.444 347.96 54.6179 346.841 55.7497C346.569 56.0342 346.266 56.3126 345.973 56.593L345.088 57.4324C344.485 57.9853 343.862 58.5242 343.249 59.069C342.609 59.5959 341.982 60.1327 341.332 60.6515L340.345 61.4228C340.017 61.6812 339.687 61.9376 339.345 62.184C336.648 64.1912 333.808 66.0862 330.841 67.8571C327.877 69.6299 324.783 71.2705 321.613 72.815C315.257 75.8819 308.602 78.5982 301.651 80.7516C305.221 79.8883 308.711 78.8145 312.154 77.6527C315.597 76.4848 318.986 75.2048 322.298 73.7945C328.916 70.972 335.279 67.6908 341.084 63.7765C343.986 61.8194 346.732 59.708 349.277 57.4064C350.553 56.2405 351.773 55.0125 352.822 53.6263C353.346 52.9312 353.83 52.2021 354.224 51.4008C354.628 50.6135 354.933 49.7361 354.988 48.7506Z" fill="white"/>
<path d="M63.3653 90.8153V80.2767H70.3359V81.6455H65.0613V84.8565H69.8364V86.2201H65.0613V90.8153H63.3653Z" fill="white"/>
<path d="M81.0769 90.8153V80.2767H82.7729V89.4466H87.8664V90.8153H81.0769Z" fill="white"/>
<path d="M107.783 85.546C107.783 86.6713 107.564 87.6387 107.124 88.4483C106.685 89.2544 106.083 89.8754 105.319 90.311C104.558 90.7433 103.692 90.9594 102.723 90.9594C101.749 90.9594 100.88 90.7433 100.115 90.311C99.3543 89.8754 98.7543 89.2527 98.3152 88.4431C97.8761 87.6335 97.6565 86.6678 97.6565 85.546C97.6565 84.4208 97.8761 83.4551 98.3152 82.649C98.7543 81.8393 99.3543 81.2184 100.115 80.7862C100.88 80.3505 101.749 80.1327 102.723 80.1327C103.692 80.1327 104.558 80.3505 105.319 80.7862C106.083 81.2184 106.685 81.8393 107.124 82.649C107.564 83.4551 107.783 84.4208 107.783 85.546ZM106.104 85.546C106.104 84.6884 105.955 83.9663 105.659 83.3797C105.366 82.7896 104.964 82.3436 104.451 82.0417C103.943 81.7364 103.367 81.5838 102.723 81.5838C102.075 81.5838 101.497 81.7364 100.988 82.0417C100.48 82.3436 100.077 82.7896 99.7806 83.3797C99.4879 83.9663 99.3415 84.6884 99.3415 85.546C99.3415 86.4037 99.4879 87.1275 99.7806 87.7176C100.077 88.3042 100.48 88.7502 100.988 89.0555C101.497 89.3574 102.075 89.5083 102.723 89.5083C103.367 89.5083 103.943 89.3574 104.451 89.0555C104.964 88.7502 105.366 88.3042 105.659 87.7176C105.955 87.1275 106.104 86.4037 106.104 85.546Z" fill="white"/>
<path d="M120.618 90.8153L117.5 80.2767H119.284L121.474 88.438H121.579L123.856 80.2767H125.624L127.901 88.4431H128.006L130.19 80.2767H131.98L128.856 90.8153H127.15L124.784 82.9217H124.696L122.33 90.8153H120.618Z" fill="white"/>
<path d="M142.181 90.8153V80.2767H149.229V81.6455H143.877V84.8565H148.861V86.2201H143.877V89.4466H149.295V90.8153H142.181Z" fill="white"/>
<path d="M160.15 90.8153V80.2767H164.156C165.027 80.2767 165.75 80.4174 166.324 80.6987C166.902 80.98 167.334 81.3694 167.62 81.8668C167.905 82.3608 168.048 82.932 168.048 83.5803C168.048 84.2253 167.903 84.793 167.614 85.2836C167.329 85.7707 166.897 86.1498 166.319 86.4208C165.744 86.6918 165.022 86.8273 164.151 86.8273H161.116V85.4586H163.997C164.546 85.4586 164.992 85.3848 165.336 85.2373C165.684 85.0898 165.938 84.8754 166.099 84.5941C166.26 84.3128 166.341 83.9749 166.341 83.5803C166.341 83.1824 166.258 82.8376 166.094 82.546C165.933 82.2544 165.678 82.0315 165.331 81.8771C164.987 81.7193 164.535 81.6404 163.975 81.6404H161.845V90.8153H160.15ZM165.699 86.0606L168.476 90.8153H166.544L163.821 86.0606H165.699Z" fill="white"/>
<path d="M184.898 83.0452C184.839 82.558 184.597 82.1807 184.173 81.9131C183.749 81.6421 183.214 81.5066 182.57 81.5066C182.109 81.5066 181.71 81.5752 181.374 81.7124C181.037 81.8462 180.776 82.0315 180.589 82.2682C180.406 82.5014 180.315 82.7673 180.315 83.0658C180.315 83.3162 180.377 83.5323 180.501 83.7141C180.629 83.8959 180.796 84.0486 181.001 84.1721C181.209 84.2922 181.432 84.3934 181.67 84.4757C181.908 84.5546 182.137 84.6198 182.356 84.6713L183.454 84.9388C183.813 85.0212 184.18 85.1327 184.557 85.2733C184.934 85.414 185.284 85.5992 185.606 85.8291C185.928 86.0589 186.187 86.3436 186.385 86.6833C186.586 87.0229 186.687 87.4294 186.687 87.9028C186.687 88.4997 186.522 89.0297 186.193 89.4929C185.867 89.956 185.393 90.3213 184.771 90.5889C184.153 90.8565 183.405 90.9903 182.526 90.9903C181.685 90.9903 180.957 90.8651 180.342 90.6147C179.727 90.3642 179.246 90.0092 178.898 89.5495C178.551 89.0863 178.359 88.5375 178.322 87.9028H180.024C180.057 88.2836 180.188 88.6009 180.419 88.8548C180.653 89.1052 180.951 89.2922 181.313 89.4157C181.679 89.5357 182.08 89.5958 182.515 89.5958C182.995 89.5958 183.421 89.5255 183.794 89.3848C184.171 89.2407 184.468 89.0417 184.683 88.7879C184.899 88.5306 185.007 88.2304 185.007 87.8874C185.007 87.5752 184.912 87.3196 184.722 87.1207C184.535 86.9217 184.281 86.757 183.959 86.6267C183.641 86.4963 183.28 86.3814 182.878 86.2819L181.549 85.9423C180.649 85.7124 179.936 85.3745 179.409 84.9285C178.886 84.4826 178.624 83.8925 178.624 83.1584C178.624 82.5512 178.8 82.0212 179.151 81.5683C179.502 81.1155 179.978 80.7639 180.578 80.5134C181.178 80.2596 181.855 80.1327 182.609 80.1327C183.37 80.1327 184.041 80.2579 184.623 80.5083C185.209 80.7587 185.67 81.1035 186.006 81.5426C186.343 81.9783 186.519 82.4791 186.533 83.0452H184.898Z" fill="white"/>
<path d="M11.3246 63.904C10.4179 63.904 9.4905 63.8461 8.54253 63.7301C5.94592 63.421 4.02938 62.7061 2.7929 61.5855C1.59763 60.4649 1 59.2477 1 57.9339C1 56.5042 1.68006 55.2097 3.04019 54.0504C4.40032 52.8526 6.31686 52.2536 8.78982 52.2536C10.4385 52.2536 12.2314 52.5628 14.1685 53.181C15.2401 53.5288 16.5178 54.1084 18.0016 54.9199C19.4854 55.7314 21.1958 56.5815 23.133 57.4702C25.1938 55.6154 27.0691 53.3163 28.759 50.5727C30.4901 47.8292 32.2005 44.8924 33.8904 41.7624C35.6214 38.5938 37.4762 35.4252 39.4545 32.2566C41.4741 29.088 43.8028 26.1126 46.4406 23.3304L50.0264 19.5629C48.5014 19.331 46.9146 19.1572 45.266 19.0412C43.6174 18.8867 41.9069 18.8094 40.1346 18.8094C37.9089 18.8094 35.6214 18.9253 33.2721 19.1572C30.9228 19.3504 28.5735 19.6788 26.2242 20.1425C22.3499 20.9154 19.0732 22.1519 16.3942 23.8521C13.7151 25.5523 11.6749 27.4071 10.2736 29.4165C8.91347 31.3872 8.23341 33.242 8.23341 34.9809C8.23341 36.1787 8.58374 37.2607 9.28442 38.2267C10.0263 39.1541 11.1185 39.8304 12.5611 40.2554C13.4678 40.5259 14.3952 40.6612 15.3432 40.6612C16.7445 40.6612 17.981 40.3907 19.0526 39.8497C20.1242 39.3087 21.031 38.6518 21.7729 37.879C22.5148 37.0675 23.0506 36.2947 23.3803 35.5605C23.7512 34.8263 23.9161 34.2853 23.8749 33.9375C23.8749 33.6671 24.081 33.5318 24.4931 33.5318C24.9053 33.5318 25.1114 33.8216 25.1114 34.4012V34.4592C25.1114 36.0435 24.5962 37.4153 23.5658 38.5745C22.5354 39.7338 21.2371 40.6225 19.6709 41.2408C18.1459 41.859 16.6003 42.1682 15.034 42.1682C14.0449 42.1682 13.0145 42.0136 11.9428 41.7045C9.71718 40.9703 8.06854 39.9077 6.99693 38.5166C5.92531 37.0868 5.3895 35.5218 5.3895 33.8216C5.3895 32.2373 5.84288 30.6144 6.74963 28.9528C7.6976 27.2526 9.07834 25.6489 10.8918 24.1419C12.7053 22.5963 14.9516 21.2631 17.6307 20.1425C20.3509 19.0219 23.4833 18.2298 27.0279 17.7661C28.9238 17.4956 30.7992 17.3024 32.6539 17.1864C34.5086 17.0705 36.3015 17.0126 38.0326 17.0126C40.4231 17.0126 42.7518 17.1285 45.0187 17.3603C47.3268 17.5535 49.4906 17.8627 51.5102 18.2877C52.0872 17.824 52.6643 17.4183 53.2413 17.0705C53.8595 16.7227 54.4159 16.4523 54.9105 16.259C55.199 16.1431 55.4463 16.0658 55.6524 16.0272C55.8585 15.9886 56.0234 15.9692 56.147 15.9692C56.3943 15.9692 56.518 16.0465 56.518 16.2011C56.518 16.3943 56.2088 16.7034 55.5906 17.1285C55.1784 17.399 54.7869 17.7081 54.4159 18.0559C54.045 18.365 53.8183 18.5969 53.7359 18.7514C57.9399 19.7561 61.3402 21.1472 63.9368 22.9247C66.5747 24.6636 67.8936 26.7309 67.8936 29.1267C67.8936 30.3632 67.4608 31.7157 66.5953 33.184C65.6885 34.6138 64.4314 35.773 62.824 36.6618C61.2166 37.5119 59.5061 38.1495 57.6926 38.5745C55.8791 38.9609 54.1893 39.1928 52.623 39.2701C53.9832 39.6565 55.467 40.2361 57.0744 41.0089C58.723 41.7431 60.2274 42.6512 61.5875 43.7332C62.9889 44.8151 63.9162 46.0903 64.3696 47.5587C64.6581 48.4861 64.8024 49.4328 64.8024 50.3988C64.8024 52.4468 64.1635 54.3016 62.8858 55.9632C61.6494 57.6248 59.9801 59.0545 57.8781 60.2524C55.8173 61.4117 53.5504 62.3004 51.0774 62.9187C48.6045 63.5756 46.1521 63.904 43.7204 63.904C42.8136 63.904 41.8863 63.8461 40.9383 63.7301C36.9816 63.2664 33.7049 62.6868 31.1083 61.9913C28.5529 61.2957 26.3066 60.5229 24.3695 59.6728C20.3715 62.4936 16.0232 63.904 11.3246 63.904ZM42.8549 62.2231C45.4102 62.2231 47.739 61.856 49.841 61.1218C51.943 60.3877 53.7565 59.4216 55.2815 58.2237C56.8477 57.0258 58.043 55.6927 58.8673 54.2243C59.7328 52.756 60.1656 51.3069 60.1656 49.8772C60.1656 48.5247 59.7328 47.2109 58.8673 45.9357C58.0017 44.6606 56.6416 43.5979 54.7869 42.7478C53.1795 42.0136 51.5102 41.4147 49.7791 40.951C48.0893 40.4486 46.6261 40.0236 45.3896 39.6758C44.1532 39.2894 43.4319 38.903 43.2258 38.5166C43.2258 38.0529 43.4319 37.7437 43.844 37.5892C44.2974 37.396 44.8744 37.2994 45.5751 37.2994C46.3994 37.2994 47.3886 37.3573 48.5427 37.4732C49.6967 37.5892 50.9126 37.6471 52.1903 37.6471C53.5092 37.6471 54.8487 37.3766 56.2088 36.8357C57.6102 36.256 58.8879 35.5025 60.0419 34.5751C61.196 33.6091 62.1233 32.5658 62.824 31.4452C63.5659 30.2859 63.9368 29.1074 63.9368 27.9095C63.9368 26.8275 63.5453 25.7649 62.7622 24.7215C61.9791 23.6782 60.6808 22.7701 58.8673 21.9973C57.0538 21.2245 55.096 20.6062 52.994 20.1425C50.9332 22.8088 48.8724 25.8035 46.8116 29.1267C44.7508 32.4112 42.69 35.7537 40.6292 39.1541C38.5684 42.516 36.487 45.7039 34.385 48.7179C32.2829 51.732 30.1809 54.3209 28.0789 56.4849C27.5843 56.9872 27.1928 57.3736 26.9043 57.6441C26.6157 57.876 26.2242 58.2044 25.7296 58.6295C27.6668 59.3637 29.8718 60.0592 32.3448 60.7161C34.8177 61.373 37.641 61.8367 40.8147 62.1072C41.1444 62.1458 41.4741 62.1652 41.8038 62.1652C42.1748 62.2038 42.5251 62.2231 42.8549 62.2231ZM10.0881 62.1072C12.3962 62.2231 14.4982 61.972 16.3942 61.3537C18.3313 60.6968 20.1242 59.7887 21.7729 58.6295C20.3303 57.9726 18.8465 57.2963 17.3215 56.6008C15.8378 55.8666 14.2509 55.2097 12.5611 54.6301C11.3658 54.2437 10.2736 54.0504 9.28442 54.0504C7.75942 54.0504 6.60538 54.4369 5.82227 55.2097C5.03917 55.9439 4.64762 56.794 4.64762 57.76C4.64762 58.7647 5.10099 59.7308 6.00774 60.6581C6.9145 61.5469 8.27462 62.0299 10.0881 62.1072Z" stroke="white"/>
<path d="M74.6865 61.8174C72.9554 61.8174 71.7808 61.3923 71.1625 60.5422C70.5443 59.6535 70.2352 58.6101 70.2352 57.4123C70.2352 56.1757 70.4206 54.9006 70.7916 53.5867C71.1625 52.2729 71.4922 51.1717 71.7808 50.2829C72.4402 48.119 73.2645 45.8198 74.2537 43.3854C75.2841 40.9123 76.3969 38.4972 77.5922 36.1401C78.8287 33.7443 80.0446 31.5997 81.2398 29.7063C82.1878 28.1993 83.1976 27.0787 84.2692 26.3445C85.382 25.5717 86.3506 25.1852 87.1749 25.1852C87.8344 25.1852 88.3496 25.4171 88.7205 25.8808C89.1327 26.3058 89.3388 26.9627 89.3388 27.8515C89.3388 28.4698 89.2151 29.204 88.9678 30.0541C88.7617 30.9042 88.3908 31.8702 87.855 32.9522C86.4124 35.9662 84.6814 38.9803 82.6618 41.9943C80.6834 45.0083 78.1692 47.8292 75.1193 50.4568C74.9544 50.9591 74.7277 51.5581 74.4392 52.2536C74.1919 52.9105 73.9652 53.5867 73.7591 54.2823C73.5118 55.3256 73.3882 56.2144 73.3882 56.9486C73.3882 58.1464 73.6355 59.0545 74.1301 59.6728C74.6659 60.2524 75.3047 60.5422 76.0466 60.5422C76.7061 60.5422 77.4067 60.3297 78.1486 59.9046C78.8905 59.4409 79.5912 58.784 80.2506 57.9339C81.2398 56.5815 82.126 55.2097 82.9091 53.8186C83.7334 52.3889 84.3516 51.2876 84.7638 50.5147C85.0111 50.0897 85.279 49.8772 85.5675 49.8772C85.7736 49.8772 85.8766 49.9931 85.8766 50.2249C85.8766 50.4181 85.8148 50.6307 85.6912 50.8625C85.3202 51.6354 84.8256 52.64 84.2074 53.8766C83.6304 55.0744 82.8885 56.2917 81.9817 57.5282C81.1162 58.7261 80.0652 59.7501 78.8287 60.6002C77.6334 61.4117 76.2527 61.8174 74.6865 61.8174ZM75.6138 48.602C77.0976 47.1723 78.5402 45.53 79.9415 43.6752C81.3429 41.7818 82.6412 39.8304 83.8364 37.821C85.0729 35.773 86.1033 33.8409 86.9276 32.0248C87.2161 31.4452 87.4428 30.8076 87.6077 30.112C87.8138 29.4165 87.9168 28.8369 87.9168 28.3732C87.9168 27.8322 87.7726 27.5617 87.4841 27.5617C87.3192 27.5617 87.0719 27.7163 86.7422 28.0254C86.4124 28.2959 85.9797 28.7789 85.4439 29.4744C84.6608 30.4405 83.7952 31.7543 82.8473 33.4159C81.9405 35.0775 81.0131 36.855 80.0652 38.7484C79.1172 40.6418 78.2517 42.4773 77.4686 44.2548C76.6855 45.9937 76.0672 47.4427 75.6138 48.602Z" stroke="white"/>
<path d="M90.8158 61.6435C89.2496 61.6435 88.0955 61.1605 87.3536 60.1944C86.6118 59.1898 86.2408 57.9726 86.2408 56.5428C86.2408 54.804 86.6736 52.9878 87.5391 51.0944C88.3634 49.3169 89.4144 47.6939 90.6921 46.2255C91.9698 44.7572 93.3506 43.5786 94.8344 42.6898C96.3181 41.7624 97.7607 41.2987 99.162 41.2987C100.728 41.2987 101.882 41.7818 102.624 42.7478C103.366 43.7138 103.737 44.931 103.737 46.3994C103.737 48.1769 103.304 49.9931 102.439 51.8479C101.944 52.8912 101.243 54.0504 100.337 55.3256C99.4299 56.5621 98.3995 57.7021 97.2455 58.7454C97.4928 59.1704 97.8431 59.5375 98.2965 59.8467C98.7499 60.1172 99.3681 60.2524 100.151 60.2524C101.14 60.2524 102.068 59.866 102.933 59.0932C103.84 58.3203 104.664 57.3929 105.406 56.311C106.148 55.1904 106.808 54.0698 107.385 52.9492C107.962 51.8286 108.436 50.9205 108.807 50.2249C108.93 49.9931 109.136 49.8772 109.425 49.8772C109.59 49.8772 109.713 49.9544 109.796 50.109C109.878 50.2249 109.858 50.4181 109.734 50.6886C109.487 51.2683 109.074 52.1377 108.497 53.2969C107.92 54.4175 107.22 55.5961 106.395 56.8326C105.571 58.0305 104.623 59.0545 103.552 59.9046C102.48 60.7547 101.285 61.1798 99.9657 61.1798C99.059 61.1798 98.2759 61.0446 97.6164 60.7741C96.957 60.4649 96.4212 60.0978 96.009 59.6728C95.1435 60.291 94.2779 60.7741 93.4124 61.1218C92.5469 61.4696 91.6813 61.6435 90.8158 61.6435ZM91.7432 60.3683C92.856 60.3683 94.0512 59.866 95.3289 58.8613C94.9992 58.3976 94.7519 57.9146 94.5871 57.4123C94.4222 56.9099 94.3398 56.4462 94.3398 56.0212C94.3398 55.3256 94.5046 54.7267 94.8344 54.2243C95.2053 53.722 95.7617 53.4708 96.5036 53.4708C97.0394 53.4708 97.4722 53.664 97.8019 54.0504C98.1728 54.3982 98.3583 54.804 98.3583 55.2677C98.3583 55.3836 98.3377 55.4995 98.2965 55.6154C98.2965 55.6927 98.2759 55.7893 98.2347 55.9052C98.9353 55.0165 99.5948 53.9732 100.213 52.7753C101.573 50.0317 102.253 47.7712 102.253 45.9937C102.253 45.1049 102.068 44.4094 101.697 43.907C101.326 43.4047 100.769 43.1535 100.028 43.1535C99.162 43.1535 98.2141 43.5013 97.1837 44.1969C96.1945 44.8924 95.2259 45.8198 94.2779 46.979C93.3712 48.1383 92.5675 49.4328 91.8668 50.8625C91.2073 52.1763 90.6715 53.4515 90.2594 54.688C89.8884 55.8859 89.703 56.9292 89.703 57.818C89.703 58.5908 89.8678 59.2091 90.1975 59.6728C90.5273 60.1365 91.0425 60.3683 91.7432 60.3683Z" stroke="white"/>
<path d="M114.616 61.6435C113.049 61.6435 111.895 61.1605 111.153 60.1944C110.412 59.1898 110.041 57.9726 110.041 56.5428C110.041 54.804 110.473 52.9878 111.339 51.0944C112.163 49.3169 113.214 47.6939 114.492 46.2255C115.77 44.7572 117.15 43.5786 118.634 42.6898C120.118 41.7624 121.561 41.2987 122.962 41.2987C124.528 41.2987 125.682 41.7818 126.424 42.7478C127.166 43.7138 127.537 44.931 127.537 46.3994C127.537 48.1769 127.104 49.9931 126.239 51.8479C125.744 52.8912 125.043 54.0504 124.137 55.3256C123.23 56.5621 122.199 57.7021 121.045 58.7454C121.293 59.1704 121.643 59.5375 122.096 59.8467C122.55 60.1172 123.168 60.2524 123.951 60.2524C124.94 60.2524 125.868 59.866 126.733 59.0932C127.64 58.3203 128.464 57.3929 129.206 56.311C129.948 55.1904 130.607 54.0698 131.184 52.9492C131.761 51.8286 132.235 50.9205 132.606 50.2249C132.73 49.9931 132.936 49.8772 133.225 49.8772C133.39 49.8772 133.513 49.9544 133.596 50.109C133.678 50.2249 133.657 50.4181 133.534 50.6886C133.286 51.2683 132.874 52.1377 132.297 53.2969C131.72 54.4175 131.02 55.5961 130.195 56.8326C129.371 58.0305 128.423 59.0545 127.351 59.9046C126.28 60.7547 125.084 61.1798 123.766 61.1798C122.859 61.1798 122.076 61.0446 121.416 60.7741C120.757 60.4649 120.221 60.0978 119.809 59.6728C118.943 60.291 118.078 60.7741 117.212 61.1218C116.347 61.4696 115.481 61.6435 114.616 61.6435ZM115.543 60.3683C116.656 60.3683 117.851 59.866 119.129 58.8613C118.799 58.3976 118.552 57.9146 118.387 57.4123C118.222 56.9099 118.14 56.4462 118.14 56.0212C118.14 55.3256 118.304 54.7267 118.634 54.2243C119.005 53.722 119.562 53.4708 120.303 53.4708C120.839 53.4708 121.272 53.664 121.602 54.0504C121.973 54.3982 122.158 54.804 122.158 55.2677C122.158 55.3836 122.138 55.4995 122.096 55.6154C122.096 55.6927 122.076 55.7893 122.035 55.9052C122.735 55.0165 123.395 53.9732 124.013 52.7753C125.373 50.0317 126.053 47.7712 126.053 45.9937C126.053 45.1049 125.868 44.4094 125.497 43.907C125.126 43.4047 124.569 43.1535 123.827 43.1535C122.962 43.1535 122.014 43.5013 120.983 44.1969C119.994 44.8924 119.026 45.8198 118.078 46.979C117.171 48.1383 116.367 49.4328 115.667 50.8625C115.007 52.1763 114.471 53.4515 114.059 54.688C113.688 55.8859 113.503 56.9292 113.503 57.818C113.503 58.5908 113.668 59.2091 113.997 59.6728C114.327 60.1365 114.842 60.3683 115.543 60.3683Z" stroke="white"/>
<path d="M129.636 61.9333C131.161 59.1898 132.604 56.4462 133.964 53.7027C135.324 50.9205 136.705 48.2929 138.106 45.8198C138.931 44.4287 139.611 43.4627 140.147 42.9217C140.724 42.3421 141.486 42.0523 142.434 42.0523C142.764 42.0523 143.114 42.1102 143.485 42.2261C143.856 42.3034 144.227 42.3421 144.598 42.3421C144.845 42.3421 145.031 42.3227 145.154 42.2841C144.577 42.5932 143.835 43.3661 142.929 44.6026C142.022 45.8005 141.094 47.1916 140.147 48.7759C139.199 50.3602 138.354 51.8479 137.612 53.239C138.395 52.3502 139.199 51.4615 140.023 50.5727C140.888 49.684 141.836 48.8338 142.867 48.0224C143.774 47.2882 144.721 46.496 145.711 45.6459C146.741 44.7572 147.751 44.0037 148.74 43.3854C149.729 42.7671 150.595 42.458 151.337 42.458C151.625 42.458 151.811 42.4773 151.893 42.516C152.676 42.8251 153.068 43.3274 153.068 44.023C153.068 44.2548 152.965 44.6026 152.759 45.0663C152.223 46.3801 151.522 47.7326 150.657 49.1237C149.832 50.4761 149.049 51.8479 148.307 53.239C148.926 52.5434 149.688 51.6933 150.595 50.6886C151.543 49.684 152.491 48.7952 153.439 48.0224C154.345 47.2495 155.499 46.4381 156.901 45.588C158.302 44.7378 159.683 44.0037 161.043 43.3854C162.403 42.7671 163.495 42.458 164.32 42.458C164.608 42.458 164.814 42.4773 164.938 42.516C164.938 42.516 164.711 42.9024 164.258 43.6752C163.805 44.4094 163.227 45.3947 162.527 46.6313C161.867 47.8292 161.187 49.1237 160.487 50.5147C159.786 51.8672 159.147 53.181 158.57 54.4562C158.034 55.6927 157.684 56.736 157.519 57.5861C157.395 58.0885 157.334 58.5522 157.334 58.9772C157.334 59.5955 157.457 60.0012 157.705 60.1944C157.952 60.3877 158.22 60.4843 158.508 60.4843C159.333 60.4843 160.178 60.0785 161.043 59.267C161.909 58.4556 162.733 57.4895 163.516 56.3689C164.34 55.2097 165.062 54.0891 165.68 53.0071C166.298 51.8865 166.751 51.0364 167.04 50.4568C167.287 50.0317 167.535 49.8192 167.782 49.8192C168.029 49.8192 168.153 49.9738 168.153 50.2829C168.153 50.4761 168.091 50.6886 167.967 50.9205C167.473 51.8092 166.875 52.8719 166.174 54.1084C165.515 55.3449 164.752 56.5621 163.887 57.76C163.021 58.9193 162.053 59.9046 160.981 60.7161C159.951 61.4889 158.838 61.8754 157.643 61.8754C156.777 61.8754 155.891 61.6049 154.984 61.0639C154.119 60.5229 153.686 59.5182 153.686 58.0498C153.686 57.2384 153.871 56.253 154.242 55.0938C154.531 54.3209 154.964 53.4322 155.541 52.4275C156.159 51.4228 156.901 50.2636 157.766 48.9498C158.179 48.2929 158.385 47.7712 158.385 47.3848C158.385 46.9211 158.137 46.6892 157.643 46.6892C157.231 46.6892 156.654 46.8824 155.912 47.2689C155.211 47.6553 154.325 48.3315 153.253 49.2975C152.594 49.8772 151.811 50.6886 150.904 51.732C150.038 52.7366 149.152 53.8379 148.245 55.0358C147.339 56.2337 146.556 57.4123 145.896 58.5715C145.237 59.7307 144.804 60.7547 144.598 61.6435C143.98 61.6435 143.485 61.4117 143.114 60.948C142.743 60.4456 142.558 59.866 142.558 59.2091C142.558 59.0932 142.558 58.9772 142.558 58.8613C142.558 58.7454 142.578 58.6101 142.619 58.4556C142.826 57.2577 143.155 56.1371 143.609 55.0938C144.062 54.0504 144.577 52.9685 145.154 51.8479C145.608 51.0364 146.061 50.167 146.514 49.2396C146.968 48.2735 147.194 47.5394 147.194 47.037C147.194 46.7279 147.071 46.5733 146.824 46.5733C146.535 46.5733 146.061 46.7858 145.402 47.2109C144.742 47.5973 143.835 48.2929 142.681 49.2975C141.651 50.2249 140.394 51.5581 138.91 53.2969C137.467 55.0358 135.881 57.5089 134.15 60.7161C133.902 61.1412 133.614 61.4117 133.284 61.5276C132.954 61.6049 132.439 61.6435 131.738 61.6435C131.285 61.6435 130.914 61.6435 130.626 61.6435C130.296 61.6821 129.966 61.7787 129.636 61.9333Z" stroke="white"/>
<path d="M176.919 38.1108C176.301 38.1108 175.785 37.9176 175.373 37.5312C175.002 37.1061 174.817 36.6038 174.817 36.0242C174.817 35.29 175.126 34.6524 175.744 34.1114C176.362 33.5704 177.042 33.3 177.784 33.3C178.444 33.3 178.98 33.4932 179.392 33.8796C179.804 34.266 180.01 34.7297 180.01 35.2707C180.01 36.0049 179.701 36.6618 179.083 37.2414C178.464 37.821 177.743 38.1108 176.919 38.1108ZM171.911 61.6435C170.386 61.6435 169.314 61.2378 168.696 60.4263C168.078 59.5762 167.769 58.6101 167.769 57.5282C167.769 56.9486 167.831 56.3689 167.954 55.7893C168.119 55.171 168.305 54.6107 168.511 54.1084L172.653 44.1969C172.777 43.8877 172.838 43.6172 172.838 43.3854C172.838 42.999 172.735 42.6705 172.529 42.4C172.323 42.0909 172.179 41.8784 172.096 41.7624L175.497 41.6465C176.115 41.6079 176.548 41.6852 176.795 41.8784C177.084 42.0329 177.228 42.2261 177.228 42.458C177.228 42.6898 177.084 43.1149 176.795 43.7332L171.664 55.0358C171.664 55.0358 171.54 55.287 171.293 55.7893C171.087 56.253 170.963 56.5621 170.922 56.7167C170.798 57.2963 170.716 57.6634 170.675 57.818C170.633 57.9726 170.613 58.0692 170.613 58.1078C170.613 58.1464 170.613 58.301 170.613 58.5715C170.613 59.0738 170.736 59.4989 170.984 59.8467C171.272 60.1944 171.746 60.3683 172.406 60.3683C172.818 60.3683 173.292 60.2524 173.828 60.0206C174.363 59.7887 174.755 59.5569 175.002 59.325C176.033 58.3203 177.042 57.0065 178.032 55.3836C179.062 53.722 180.01 52.0797 180.875 50.4568C181.04 50.0704 181.246 49.8772 181.494 49.8772C181.7 49.8772 181.803 50.0124 181.803 50.2829C181.803 50.4375 181.741 50.6693 181.617 50.9784C181.205 51.7899 180.69 52.7946 180.072 53.9925C179.454 55.1904 178.712 56.3883 177.846 57.5861C177.022 58.7454 176.115 59.7114 175.126 60.4843C174.137 61.2571 173.065 61.6435 171.911 61.6435Z" stroke="white"/>
<path d="M178.08 62.1072C179.564 59.2864 180.986 56.5042 182.346 53.7606C183.747 50.9784 185.169 48.3315 186.612 45.8198C187.436 44.4287 188.116 43.4627 188.652 42.9217C189.229 42.3421 189.991 42.0523 190.939 42.0523C191.269 42.0523 191.619 42.1102 191.99 42.2261C192.361 42.3034 192.732 42.3421 193.103 42.3421C193.35 42.3421 193.536 42.3227 193.66 42.2841C193.083 42.5932 192.341 43.3661 191.434 44.6026C190.527 45.8005 189.6 47.1916 188.652 48.7759C187.704 50.3602 186.859 51.8479 186.117 53.239C186.9 52.3502 187.704 51.4615 188.528 50.5727C189.394 49.684 190.342 48.8338 191.372 48.0224C192.361 47.2109 193.536 46.3801 194.896 45.53C196.297 44.6412 197.657 43.907 198.976 43.3274C200.295 42.7478 201.346 42.458 202.129 42.458C202.418 42.458 202.624 42.4773 202.748 42.516C202.748 42.516 202.521 42.9024 202.068 43.6752C201.614 44.4094 201.037 45.3947 200.337 46.6313C199.677 47.8292 198.997 49.1237 198.296 50.5147C197.596 51.8672 196.957 53.181 196.38 54.4562C195.844 55.6927 195.494 56.736 195.329 57.5861C195.205 58.0885 195.143 58.5522 195.143 58.9772C195.143 59.5955 195.267 60.0012 195.514 60.1944C195.762 60.3877 196.029 60.4843 196.318 60.4843C197.101 60.4843 197.925 60.0978 198.791 59.325C199.656 58.5135 200.481 57.5282 201.264 56.3689C202.088 55.2097 202.809 54.0891 203.428 53.0071C204.087 51.8865 204.561 51.0364 204.85 50.4568C205.015 50.1477 205.138 49.9738 205.221 49.9351C205.303 49.8578 205.427 49.8192 205.592 49.8192C205.839 49.8192 205.963 49.9738 205.963 50.2829C205.963 50.4761 205.901 50.6886 205.777 50.9205C205.282 51.8092 204.685 52.8719 203.984 54.1084C203.325 55.3449 202.562 56.5621 201.697 57.76C200.831 58.9193 199.883 59.9046 198.853 60.7161C197.822 61.4889 196.71 61.8754 195.514 61.8754C194.69 61.8754 193.824 61.6049 192.918 61.0639C192.052 60.5229 191.619 59.5182 191.619 58.0498C191.619 57.6248 191.661 57.1804 191.743 56.7167C191.825 56.2144 191.97 55.6734 192.176 55.0938C192.505 54.3209 192.897 53.4901 193.35 52.6014C193.804 51.7126 194.546 50.4954 195.576 48.9498C195.865 48.5247 196.029 48.1963 196.071 47.9644C196.153 47.7326 196.194 47.5394 196.194 47.3848C196.194 46.9211 195.968 46.6892 195.514 46.6892C195.143 46.6892 194.587 46.8824 193.845 47.2689C193.144 47.6553 192.258 48.3315 191.187 49.2975C190.156 50.2249 188.92 51.5387 187.477 53.239C186.076 54.9392 184.448 57.4509 182.593 60.7741C182.305 61.2764 181.975 61.5469 181.604 61.5855C181.274 61.6242 180.8 61.6628 180.182 61.7015C179.77 61.7401 179.378 61.7594 179.007 61.7594C178.636 61.7981 178.327 61.914 178.08 62.1072Z" stroke="white"/>
<path d="M203.609 80.1335C199.694 80.1335 197.736 78.6264 197.736 75.6124C197.736 74.1827 198.272 72.9075 199.343 71.7869C200.415 70.6663 201.693 69.7003 203.177 68.8888C205.237 67.7295 207.236 66.8021 209.173 66.1066C211.111 65.4111 212.945 64.7928 214.676 64.2518C216.448 63.7495 218.117 63.1892 219.684 62.5709C220.425 60.5229 220.92 58.3783 221.167 56.1371C221.291 54.9778 221.353 53.9732 221.353 53.1231C221.353 52.2343 221.291 51.6547 221.167 51.3842C220.714 52.1957 220.116 53.181 219.374 54.3403C218.633 55.4995 217.788 56.6394 216.84 57.76C215.892 58.842 214.861 59.7501 213.748 60.4843C212.677 61.2184 211.564 61.5855 210.41 61.5855C209.998 61.5855 209.606 61.5276 209.235 61.4117C208.081 60.948 207.236 60.2911 206.701 59.4409C206.206 58.5908 205.959 57.6248 205.959 56.5428C205.959 54.804 206.494 52.9298 207.566 50.9205C208.638 48.9111 209.915 47.0757 211.399 45.4141C212.594 44.0616 213.996 42.9797 215.603 42.1682C217.211 41.3567 218.839 40.951 220.487 40.951C222.383 40.951 224.156 41.5499 225.804 42.7478C226.422 43.2115 226.732 43.7138 226.732 44.2548C226.732 44.8344 226.484 45.1243 225.99 45.1243C225.577 45.1243 225.289 44.8731 225.124 44.3707C224.547 42.941 223.62 42.2261 222.342 42.2261C221.312 42.2261 220.137 42.6512 218.818 43.5013C217.499 44.3128 216.263 45.3368 215.109 46.5733C214.119 47.6166 213.151 48.8145 212.203 50.167C211.296 51.5194 210.534 52.8526 209.915 54.1664C209.338 55.4802 209.05 56.6201 209.05 57.5861C209.05 58.2431 209.215 58.8034 209.544 59.267C209.874 59.7307 210.389 59.9626 211.09 59.9626C212.038 59.9626 213.027 59.5375 214.058 58.6874C215.129 57.8373 216.139 56.794 217.087 55.5575C218.076 54.3209 218.921 53.0651 219.622 51.7899C220.364 50.5147 220.879 49.4521 221.167 48.602C221.456 47.7132 221.847 47.1723 222.342 46.979C222.837 46.7472 223.331 46.6313 223.826 46.6313C224.32 46.6313 224.733 46.5154 225.062 46.2835C225.227 47.1336 225.33 48.0031 225.371 48.8918C225.454 49.7419 225.495 50.6114 225.495 51.5001C225.495 54.4755 225.083 57.4702 224.259 60.4843C225 59.9433 225.763 59.3637 226.546 58.7454C227.37 58.0885 228.071 57.3929 228.648 56.6587C229.678 55.3449 230.441 54.147 230.936 53.0651C231.471 51.9445 231.884 51.0751 232.172 50.4568C232.419 50.0704 232.687 49.8772 232.976 49.8772C233.223 49.8772 233.347 49.9931 233.347 50.2249C233.347 50.4181 233.264 50.65 233.099 50.9205C232.069 52.9685 231.121 54.7267 230.255 56.1951C229.39 57.6248 228.442 58.842 227.412 59.8467C226.381 60.8127 225.103 61.6435 223.578 62.339C222.919 64.1938 221.93 66.1452 220.611 68.1932C219.292 70.2412 217.746 72.1733 215.974 73.9895C214.202 75.8056 212.265 77.274 210.163 78.3946C208.061 79.5538 205.876 80.1335 203.609 80.1335ZM202.126 78.9742C203.032 78.9742 203.98 78.781 204.969 78.3946C206 78.0468 206.968 77.6218 207.875 77.1194C208.782 76.6171 209.483 76.192 209.977 75.8443C210.925 75.1487 211.894 74.2793 212.883 73.236C213.872 72.1926 214.738 71.188 215.48 70.2219C216.18 69.2945 216.84 68.3092 217.458 67.2658C218.117 66.2612 218.674 65.2565 219.127 64.2518C218.797 64.3677 218.385 64.503 217.891 64.6575C217.437 64.8121 217.108 64.928 216.901 65.0053C215.541 65.4304 214.037 65.9134 212.388 66.4544C210.781 67.034 209.173 67.6523 207.566 68.3092C205.959 69.0047 204.495 69.7582 203.177 70.5697C202.023 71.3039 201.075 72.2699 200.333 73.4678C199.55 74.6657 199.158 75.709 199.158 76.5978C199.158 77.2547 199.405 77.815 199.9 78.2787C200.353 78.7424 201.095 78.9742 202.126 78.9742Z" stroke="white"/>
<path d="M354.988 48.7506C355.03 48.2638 354.958 47.7389 354.822 47.2181C354.666 46.6932 354.395 46.1764 354.03 45.7017C353.651 45.2369 353.187 44.8303 352.681 44.4938C352.17 44.1732 351.632 43.8948 351.086 43.6985C349.992 43.2778 348.893 43.0815 347.826 42.9573C346.757 42.8451 345.71 42.8251 344.688 42.8651C342.639 42.9452 340.684 43.2597 338.782 43.6584C336.879 44.063 335.033 44.5699 333.235 45.1548C326.048 47.5126 319.581 51.0482 314.047 55.3591C311.336 57.5005 308.751 59.686 306.22 61.9356C303.698 64.1832 301.249 66.4789 298.85 68.7986C294.043 73.43 289.483 78.1956 284.671 82.6828C284.222 83.0974 283.755 83.492 283.301 83.8987C285.437 81.0862 287.29 78.1195 288.724 74.9905C289.672 72.9212 290.421 70.7818 290.925 68.5923C291.421 66.4028 291.671 64.1631 291.599 61.9195C291.572 60.7978 291.455 59.676 291.262 58.5622C291.175 58.0033 291.044 57.4524 290.92 56.8975C290.773 56.3487 290.632 55.7958 290.448 55.2549C290.285 54.708 290.071 54.1732 289.87 53.6343C289.645 53.1035 289.431 52.5687 289.171 52.0478L288.444 50.5514C288.211 50.0646 287.958 49.5839 287.742 49.0931C286.822 47.144 286.015 45.1708 285.301 43.1817C284.591 41.1925 283.999 39.1832 283.584 37.158C282.741 33.1155 282.58 29.009 283.413 25.0286C284.222 21.0443 286.075 17.2302 288.6 13.6905C288.873 13.3099 289.178 12.9413 289.463 12.5667C289.277 13.0655 289.077 13.5603 288.9 14.0611C287.467 18.1957 286.373 22.4445 286.07 26.8235C285.926 29.011 285.981 31.2345 286.41 33.4601C286.836 35.6796 287.633 37.9172 289.037 39.9765C289.739 41.0022 290.59 41.9757 291.582 42.8531C292.572 43.7305 293.698 44.5077 294.914 45.1628C296.129 45.8158 297.421 46.3627 298.756 46.7834C300.091 47.2 301.455 47.5266 302.857 47.757C305.665 48.1897 308.582 48.2177 311.373 47.805C312.769 47.6047 314.139 47.3162 315.463 46.9496C316.786 46.577 318.068 46.1323 319.306 45.6355C320.549 45.1407 321.735 44.5779 322.888 43.9829C324.042 43.388 325.153 42.7489 326.225 42.0778C328.373 40.7397 330.37 39.2734 332.258 37.7349C336.028 34.654 339.362 31.2886 342.404 27.781C343.924 26.0262 345.373 24.2334 346.75 22.4065C347.437 21.493 348.109 20.5695 348.761 19.638C349.089 19.1713 349.409 18.7025 349.726 18.2297C350.046 17.753 350.349 17.2902 350.667 16.7794C350.972 16.2866 350.964 15.6797 350.577 15.1789C349.987 14.4097 348.734 14.1753 347.784 14.6521L347.764 14.6621C347.457 14.8163 347.075 14.9946 346.722 15.1589C346.36 15.3251 345.996 15.4874 345.626 15.6496C344.887 15.9681 344.14 16.2826 343.386 16.5811C341.875 17.1821 340.337 17.739 338.779 18.2518C335.661 19.2714 332.461 20.1228 329.209 20.7117C327.584 21.0162 325.944 21.2386 324.305 21.3969C322.662 21.5651 321.018 21.6212 319.383 21.6131L318.157 21.5891L316.942 21.515C316.535 21.499 316.136 21.4489 315.734 21.4068L314.831 21.3107L313.345 21.0803C312.951 21.0162 312.566 20.922 312.177 20.8459L311.594 20.7257C311.403 20.6797 311.214 20.6256 311.023 20.5755C310.643 20.4734 310.261 20.3772 309.884 20.269C306.913 19.3576 303.946 18.0274 302.122 16.2546C301.676 15.8119 301.306 15.3471 301.053 14.8724C300.81 14.3956 300.656 13.9149 300.646 13.4341C300.597 12.4766 301.071 11.499 301.919 10.6136C302.762 9.72415 303.961 8.95696 305.283 8.32194C306.61 7.68292 308.088 7.18409 309.614 6.77944C312.683 5.98217 315.974 5.58955 319.286 5.50341C320.943 5.46535 322.608 5.50545 324.272 5.57757C325.934 5.65369 327.621 5.75985 329.266 5.92211C330.913 6.08638 332.538 6.31872 334.073 6.66928C334.84 6.84556 335.582 7.05189 336.266 7.30029C336.946 7.54869 337.584 7.83915 338.075 8.17168C338.571 8.50421 338.903 8.86282 339.05 9.21338C339.194 9.56394 339.181 9.96254 338.978 10.4253C338.782 10.884 338.392 11.3668 337.921 11.8195C337.44 12.2703 336.874 12.6989 336.249 13.0876C335.006 13.8708 333.572 14.5179 332.074 15.0407C330.573 15.5655 328.991 15.9602 327.378 16.2246C326.986 16.2947 326.54 16.3427 326.12 16.4109C325.691 16.483 325.292 16.5351 324.883 16.5851C324.066 16.6833 323.238 16.7434 322.409 16.7714C320.747 16.8275 319.07 16.7574 317.413 16.5631C315.759 16.3668 314.116 16.0483 312.568 15.5715C311.799 15.3271 311.048 15.0467 310.381 14.6981C310.046 14.5258 309.731 14.3336 309.47 14.1252C309.212 13.9189 308.994 13.6865 308.914 13.4762C308.83 13.2658 308.847 13.0916 309.004 12.8892C309.155 12.6889 309.438 12.4926 309.763 12.3304C310.415 11.9978 311.219 11.7794 312.023 11.5971C313.65 11.2426 315.362 11.0623 317.073 10.9341C318.788 10.8119 320.517 10.7578 322.243 10.7378C323.972 10.7178 325.704 10.7318 327.435 10.7698C323.985 10.5114 320.519 10.3371 317.034 10.4093C315.292 10.4553 313.541 10.5495 311.795 10.8399C311.576 10.874 311.358 10.9161 311.14 10.9621C310.921 11.0042 310.703 11.0583 310.487 11.1124C310.053 11.2246 309.619 11.3568 309.195 11.5451C308.776 11.7334 308.344 11.9658 308.007 12.3464C307.833 12.5287 307.711 12.767 307.647 13.0134C307.597 13.2638 307.607 13.5243 307.689 13.7546C307.84 14.2234 308.165 14.5699 308.493 14.8684C308.828 15.1689 309.195 15.4133 309.574 15.6356C310.331 16.0823 311.14 16.4249 311.963 16.7294C313.615 17.3243 315.339 17.739 317.093 18.0275C318.847 18.3139 320.636 18.4701 322.439 18.4902C323.34 18.5002 324.245 18.4742 325.145 18.4081C325.597 18.374 326.056 18.3319 326.478 18.2818C326.912 18.2297 327.326 18.2057 327.787 18.1476C329.588 17.9353 331.357 17.5667 333.069 17.0499C334.78 16.529 336.442 15.872 337.99 14.9966C338.764 14.5599 339.506 14.0611 340.193 13.4801C340.87 12.8932 341.511 12.2201 341.95 11.3748C342.168 10.9541 342.332 10.4894 342.394 9.9946C342.458 9.49981 342.413 8.97695 342.25 8.48016C342.088 7.98336 341.813 7.52666 341.483 7.12802C341.153 6.73139 340.776 6.37683 340.372 6.08436C339.568 5.4834 338.7 5.05469 337.827 4.6901C336.953 4.32953 336.068 4.04509 335.182 3.8027C333.409 3.31993 331.63 2.99544 329.854 2.74504C328.073 2.49264 326.311 2.31632 324.518 2.22217C322.727 2.12802 320.923 2.128 319.12 2.19411C315.516 2.33233 311.886 2.73298 308.356 3.65445C306.595 4.1212 304.856 4.70416 303.204 5.49742C301.562 6.29069 299.974 7.27225 298.697 8.60438C298.066 9.27144 297.503 10.0166 297.126 10.858C296.928 11.2726 296.794 11.7154 296.69 12.1641C296.608 12.6148 296.548 13.0735 296.576 13.5343C296.6 14.4537 296.888 15.3512 297.31 16.1625C297.741 16.9718 298.324 17.6929 298.969 18.3319C300.274 19.6099 301.832 20.5715 303.435 21.3768C304.241 21.7754 305.064 22.13 305.895 22.4585C306.719 22.7891 307.6 23.0555 308.461 23.3439C308.9 23.4701 309.344 23.5823 309.785 23.7025C310.006 23.7606 310.227 23.8227 310.45 23.8748L311.125 24.015C311.576 24.1051 312.023 24.2113 312.477 24.2854L313.839 24.4958L314.178 24.5479L315.205 24.656C315.662 24.7041 316.118 24.7582 316.577 24.7782L317.952 24.8623L319.323 24.8884C321.149 24.8984 322.972 24.8323 324.768 24.65C326.564 24.4758 328.348 24.2354 330.097 23.9068C333.602 23.2698 337.003 22.3644 340.305 21.2847C341.471 20.9021 342.609 20.4653 343.748 20.0366C343.587 20.255 343.433 20.4774 343.269 20.6937C341.937 22.4625 340.536 24.1973 339.065 25.892C336.127 29.2774 332.922 32.5086 329.36 35.4172C327.579 36.8676 325.709 38.2397 323.729 39.4717C322.742 40.0927 321.727 40.6737 320.683 41.2125C319.641 41.7514 318.577 42.2561 317.48 42.6908C316.386 43.1295 315.267 43.5161 314.129 43.8387C312.988 44.1532 311.829 44.3975 310.658 44.5638C308.319 44.9124 305.94 44.8803 303.626 44.5298C302.472 44.3395 301.334 44.0671 300.235 43.7245C299.141 43.382 298.114 42.9413 297.159 42.4305C295.251 41.4048 293.696 40.0246 292.582 38.388C291.465 36.7514 290.783 34.8864 290.414 32.9533C290.039 31.0182 289.979 29.009 290.113 26.9958C290.389 22.9613 291.418 18.9128 292.797 14.9485C293.495 12.9653 294.286 10.9982 295.157 9.05511C295.593 8.08356 296.052 7.118 296.528 6.16047C296.769 5.6817 297.012 5.20498 297.26 4.73222C297.508 4.26347 297.771 3.77865 298.019 3.34396L298.027 3.32996C298.394 2.68893 298.215 1.90568 297.528 1.41289C296.687 0.811933 295.405 0.874047 294.66 1.55313C291.116 4.7843 287.779 8.22977 285.058 12.0479C282.339 15.8539 280.28 20.0687 279.387 24.4757C278.931 26.6733 278.74 28.9028 278.787 31.1164C278.831 33.3319 279.109 35.5314 279.558 37.6949C280.002 39.8603 280.63 41.9877 281.377 44.0771C282.126 46.1644 282.967 48.2257 283.922 50.2429C284.147 50.7517 284.405 51.2485 284.649 51.7533L285.36 53.2217C285.594 53.6844 285.782 54.1612 285.986 54.6339C286.162 55.1127 286.355 55.5875 286.497 56.0723C286.66 56.553 286.782 57.0418 286.916 57.5306C287.022 58.0214 287.144 58.5121 287.218 59.0069C287.39 59.9945 287.494 60.9921 287.519 61.9937C287.65 66.0001 286.638 70.0265 284.892 73.8486C283.14 77.6768 280.669 81.3126 277.777 84.72C276.328 86.4227 274.768 88.0693 273.118 89.6539C272.292 90.4451 271.444 91.2224 270.573 91.9776C270.137 92.3562 269.698 92.7288 269.251 93.0934L268.579 93.6342C268.358 93.8085 268.117 93.9968 267.919 94.143L267.904 94.1531C267.259 94.6338 267.053 95.4171 267.46 96.0861C267.959 96.8974 269.177 97.232 270.181 96.8293C273.739 95.4091 276.916 93.5201 279.781 91.4507C281.213 90.4111 282.577 89.3293 283.897 88.2216C285.209 87.1098 286.474 85.976 287.717 84.8302C290.185 82.5325 292.552 80.1908 294.899 77.853C297.245 75.5173 299.577 73.1856 301.951 70.8919C304.323 68.5982 306.734 66.3386 309.21 64.1331C311.685 61.9336 314.245 59.7721 316.855 57.7088C322.022 53.6784 328.115 50.3571 334.733 48.1916C336.383 47.6468 338.075 47.2041 339.777 46.8555C341.478 46.519 343.202 46.2886 344.874 46.2245C345.708 46.1944 346.529 46.1964 347.308 46.2645C348.082 46.3266 348.826 46.4508 349.429 46.6532C349.744 46.7473 349.994 46.8756 350.233 46.9978C350.453 47.13 350.632 47.2742 350.783 47.4284C350.917 47.5907 351.031 47.7629 351.111 47.9673C351.173 48.1796 351.24 48.404 351.23 48.6704C351.242 49.1892 351.096 49.7902 350.84 50.3972C350.585 51.0061 350.228 51.6211 349.821 52.2281C349.005 53.444 347.96 54.6179 346.841 55.7497C346.569 56.0342 346.266 56.3126 345.973 56.593L345.088 57.4324C344.485 57.9853 343.862 58.5242 343.249 59.069C342.609 59.5959 341.982 60.1327 341.332 60.6515L340.345 61.4228C340.017 61.6812 339.687 61.9376 339.345 62.184C336.648 64.1912 333.808 66.0862 330.841 67.8571C327.877 69.6299 324.783 71.2705 321.613 72.815C315.257 75.8819 308.602 78.5982 301.651 80.7516C305.221 79.8883 308.711 78.8145 312.154 77.6527C315.597 76.4848 318.986 75.2048 322.298 73.7945C328.916 70.972 335.279 67.6908 341.084 63.7765C343.986 61.8194 346.732 59.708 349.277 57.4064C350.553 56.2405 351.773 55.0125 352.822 53.6263C353.346 52.9312 353.83 52.2021 354.224 51.4008C354.628 50.6135 354.933 49.7361 354.988 48.7506Z" stroke="white"/>
<path d="M63.3653 90.8153V80.2767H70.3359V81.6455H65.0613V84.8565H69.8364V86.2201H65.0613V90.8153H63.3653Z" stroke="white"/>
<path d="M81.0769 90.8153V80.2767H82.7729V89.4466H87.8664V90.8153H81.0769Z" stroke="white"/>
<path d="M107.783 85.546C107.783 86.6713 107.564 87.6387 107.124 88.4483C106.685 89.2544 106.083 89.8754 105.319 90.311C104.558 90.7433 103.692 90.9594 102.723 90.9594C101.749 90.9594 100.88 90.7433 100.115 90.311C99.3543 89.8754 98.7543 89.2527 98.3152 88.4431C97.8761 87.6335 97.6565 86.6678 97.6565 85.546C97.6565 84.4208 97.8761 83.4551 98.3152 82.649C98.7543 81.8393 99.3543 81.2184 100.115 80.7862C100.88 80.3505 101.749 80.1327 102.723 80.1327C103.692 80.1327 104.558 80.3505 105.319 80.7862C106.083 81.2184 106.685 81.8393 107.124 82.649C107.564 83.4551 107.783 84.4208 107.783 85.546ZM106.104 85.546C106.104 84.6884 105.955 83.9663 105.659 83.3797C105.366 82.7896 104.964 82.3436 104.451 82.0417C103.943 81.7364 103.367 81.5838 102.723 81.5838C102.075 81.5838 101.497 81.7364 100.988 82.0417C100.48 82.3436 100.077 82.7896 99.7806 83.3797C99.4879 83.9663 99.3415 84.6884 99.3415 85.546C99.3415 86.4037 99.4879 87.1275 99.7806 87.7176C100.077 88.3042 100.48 88.7502 100.988 89.0555C101.497 89.3574 102.075 89.5083 102.723 89.5083C103.367 89.5083 103.943 89.3574 104.451 89.0555C104.964 88.7502 105.366 88.3042 105.659 87.7176C105.955 87.1275 106.104 86.4037 106.104 85.546Z" stroke="white"/>
<path d="M120.618 90.8153L117.5 80.2767H119.284L121.474 88.438H121.579L123.856 80.2767H125.624L127.901 88.4431H128.006L130.19 80.2767H131.98L128.856 90.8153H127.15L124.784 82.9217H124.696L122.33 90.8153H120.618Z" stroke="white"/>
<path d="M142.181 90.8153V80.2767H149.229V81.6455H143.877V84.8565H148.861V86.2201H143.877V89.4466H149.295V90.8153H142.181Z" stroke="white"/>
<path d="M160.15 90.8153V80.2767H164.156C165.027 80.2767 165.75 80.4174 166.324 80.6987C166.902 80.98 167.334 81.3694 167.62 81.8668C167.905 82.3608 168.048 82.932 168.048 83.5803C168.048 84.2253 167.903 84.793 167.614 85.2836C167.329 85.7707 166.897 86.1498 166.319 86.4208C165.744 86.6918 165.022 86.8273 164.151 86.8273H161.116V85.4586H163.997C164.546 85.4586 164.992 85.3848 165.336 85.2373C165.684 85.0898 165.938 84.8754 166.099 84.5941C166.26 84.3128 166.341 83.9749 166.341 83.5803C166.341 83.1824 166.258 82.8376 166.094 82.546C165.933 82.2544 165.678 82.0315 165.331 81.8771C164.987 81.7193 164.535 81.6404 163.975 81.6404H161.845V90.8153H160.15ZM165.699 86.0606L168.476 90.8153H166.544L163.821 86.0606H165.699Z" stroke="white"/>
<path d="M184.898 83.0452C184.839 82.558 184.597 82.1807 184.173 81.9131C183.749 81.6421 183.214 81.5066 182.57 81.5066C182.109 81.5066 181.71 81.5752 181.374 81.7124C181.037 81.8462 180.776 82.0315 180.589 82.2682C180.406 82.5014 180.315 82.7673 180.315 83.0658C180.315 83.3162 180.377 83.5323 180.501 83.7141C180.629 83.8959 180.796 84.0486 181.001 84.1721C181.209 84.2922 181.432 84.3934 181.67 84.4757C181.908 84.5546 182.137 84.6198 182.356 84.6713L183.454 84.9388C183.813 85.0212 184.18 85.1327 184.557 85.2733C184.934 85.414 185.284 85.5992 185.606 85.8291C185.928 86.0589 186.187 86.3436 186.385 86.6833C186.586 87.0229 186.687 87.4294 186.687 87.9028C186.687 88.4997 186.522 89.0297 186.193 89.4929C185.867 89.956 185.393 90.3213 184.771 90.5889C184.153 90.8565 183.405 90.9903 182.526 90.9903C181.685 90.9903 180.957 90.8651 180.342 90.6147C179.727 90.3642 179.246 90.0092 178.898 89.5495C178.551 89.0863 178.359 88.5375 178.322 87.9028H180.024C180.057 88.2836 180.188 88.6009 180.419 88.8548C180.653 89.1052 180.951 89.2922 181.313 89.4157C181.679 89.5357 182.08 89.5958 182.515 89.5958C182.995 89.5958 183.421 89.5255 183.794 89.3848C184.171 89.2407 184.468 89.0417 184.683 88.7879C184.899 88.5306 185.007 88.2304 185.007 87.8874C185.007 87.5752 184.912 87.3196 184.722 87.1207C184.535 86.9217 184.281 86.757 183.959 86.6267C183.641 86.4963 183.28 86.3814 182.878 86.2819L181.549 85.9423C180.649 85.7124 179.936 85.3745 179.409 84.9285C178.886 84.4826 178.624 83.8925 178.624 83.1584C178.624 82.5512 178.8 82.0212 179.151 81.5683C179.502 81.1155 179.978 80.7639 180.578 80.5134C181.178 80.2596 181.855 80.1327 182.609 80.1327C183.37 80.1327 184.041 80.2579 184.623 80.5083C185.209 80.7587 185.67 81.1035 186.006 81.5426C186.343 81.9783 186.519 82.4791 186.533 83.0452H184.898Z" stroke="white"/>
</svg>
