<svg width="137" height="38" viewBox="0 0 137 38" fill="none" xmlns="http://www.w3.org/2000/svg">
<path fill-rule="evenodd" clip-rule="evenodd" d="M18.3398 1.05261C8.21101 1.05261 0 9.32356 0 19.5263C0 29.729 8.21101 38 18.3398 38C28.4686 38 36.6796 29.729 36.6796 19.5263C36.6796 9.32356 28.4686 1.05261 18.3398 1.05261ZM19.833 25.358C19.6522 25.55 19.2991 25.5888 19.2991 25.5888H18.1299C18.1299 25.5888 15.5504 25.7421 13.278 23.4035C10.7999 20.852 8.61166 15.7897 8.61166 15.7897C8.61166 15.7897 8.48536 15.4576 8.62218 15.2977C8.77623 15.117 9.19626 15.1057 9.19626 15.1057L11.9911 15.0877C11.9911 15.0877 12.2542 15.1303 12.4427 15.2674C12.5986 15.381 12.6857 15.5919 12.6857 15.5919C12.6857 15.5919 13.1373 16.7215 13.7353 17.7432C14.9036 19.7385 15.447 20.1746 15.8432 19.9608C16.4211 19.6495 16.2479 17.1406 16.2479 17.1406C16.2479 17.1406 16.2584 16.2305 15.957 15.8247C15.7236 15.5106 15.2834 15.4188 15.0892 15.3933C14.9313 15.3724 15.1897 15.0111 15.5245 14.8493C16.0278 14.6061 16.9157 14.592 17.9653 14.6024C18.7834 14.6109 19.0188 14.661 19.3384 14.7376C20.08 14.9146 20.0569 15.4818 20.0069 16.7058C19.992 17.0718 19.9746 17.4966 19.9746 17.9873C19.9746 18.0976 19.9714 18.2151 19.968 18.336C19.9507 18.9631 19.9308 19.6812 20.3487 19.9485C20.5631 20.0847 21.0864 19.9683 22.3963 17.7697C23.0173 16.7272 23.4823 15.5021 23.4823 15.5021C23.4823 15.5021 23.5846 15.2835 23.7425 15.1899C23.9042 15.0943 24.1224 15.1236 24.1224 15.1236L27.0636 15.1057C27.0636 15.1057 27.9477 15.0006 28.0902 15.3961C28.2404 15.8095 27.7601 16.7764 26.5584 18.3601C25.418 19.8633 24.8632 20.4164 24.9146 20.9059C24.9522 21.2632 25.3128 21.5865 26.0044 22.2209C27.449 23.547 27.8362 24.2447 27.9292 24.4123C27.9369 24.4262 27.9426 24.4365 27.9467 24.4432C28.5944 25.5056 27.2281 25.5888 27.2281 25.5888L24.6151 25.6248C24.6151 25.6248 24.0544 25.7345 23.3158 25.2331C22.9288 24.9707 22.5507 24.5421 22.1906 24.1338C21.6406 23.5103 21.1326 22.9344 20.6989 23.0704C19.9708 23.2994 19.9928 24.85 19.9928 24.85C19.9928 24.85 19.9985 25.182 19.833 25.358Z" fill="white"/>
<path fill-rule="evenodd" clip-rule="evenodd" d="M68.5 0C58.3712 0 50.1602 8.27095 50.1602 18.4737C50.1602 28.6764 58.3712 36.9474 68.5 36.9474C78.6288 36.9474 86.8398 28.6764 86.8398 18.4737C86.8398 8.27095 78.6288 0 68.5 0ZM64.4677 8.68052C65.511 8.63269 65.8444 8.62099 68.5009 8.62099H68.4978C71.1551 8.62099 71.4872 8.63269 72.5306 8.68052C73.5719 8.72855 74.283 8.89461 74.9066 9.13826C75.5505 9.38971 76.0946 9.72635 76.6387 10.2744C77.1828 10.8221 77.517 11.3718 77.7677 12.0198C78.0081 12.6462 78.1732 13.3622 78.2221 14.4111C78.2689 15.4621 78.2812 15.7979 78.2812 18.4737C78.2812 21.1496 78.2689 21.4846 78.2221 22.5355C78.1732 23.584 78.0081 24.3002 77.7677 24.9269C77.517 25.5747 77.1828 26.1244 76.6387 26.672C76.0952 27.2201 75.5503 27.5575 74.9072 27.8092C74.2849 28.0528 73.5733 28.2189 72.532 28.2669C71.4886 28.3148 71.1563 28.3265 68.4996 28.3265C65.8434 28.3265 65.5102 28.3148 64.4669 28.2669C63.4258 28.2189 62.7148 28.0528 62.0924 27.8092C61.4495 27.5575 60.9038 27.2201 60.3603 26.672C59.8165 26.1244 59.4823 25.5747 59.2322 24.9267C58.9905 24.3002 58.8257 23.5842 58.7778 22.5353C58.7305 21.4844 58.7187 21.1496 58.7187 18.4737C58.7187 15.7979 58.7309 15.4619 58.7776 14.4109C58.8245 13.3624 58.9895 12.6462 59.232 12.0196C59.4827 11.3718 59.8169 10.8221 60.3609 10.2744C60.9046 9.72655 61.4503 9.38992 62.0937 9.13826C62.7156 8.89461 63.4264 8.72855 64.4677 8.68052Z" fill="white"/>
<path fill-rule="evenodd" clip-rule="evenodd" d="M67.6231 10.3965C67.7935 10.3962 67.9768 10.3963 68.1746 10.3964L68.5006 10.3965C71.1122 10.3965 71.4217 10.4059 72.4531 10.4532C73.4067 10.4971 73.9243 10.6576 74.2691 10.7925C74.7256 10.971 75.051 11.1845 75.3932 11.5294C75.7355 11.8742 75.9474 12.2026 76.1251 12.6624C76.259 13.0093 76.4186 13.5307 76.462 14.4913C76.5089 15.53 76.519 15.842 76.519 18.4714C76.519 21.1009 76.5089 21.4129 76.462 22.4515C76.4184 23.4122 76.259 23.9335 76.1251 24.2804C75.9479 24.7402 75.7355 25.0676 75.3932 25.4123C75.0508 25.7571 74.7258 25.9706 74.2691 26.1492C73.9248 26.2847 73.4067 26.4448 72.4531 26.4887C71.422 26.5359 71.1122 26.5462 68.5006 26.5462C65.8888 26.5462 65.5792 26.5359 64.5481 26.4887C63.5944 26.4444 63.0768 26.2838 62.7318 26.149C62.2754 25.9704 61.9493 25.7569 61.607 25.4121C61.2646 25.0672 61.0527 24.7396 60.875 24.2796C60.7411 23.9327 60.5816 23.4114 60.5382 22.4507C60.4913 21.4121 60.4819 21.1001 60.4819 18.469C60.4819 15.8379 60.4913 15.5275 60.5382 14.4889C60.5818 13.5282 60.7411 13.0069 60.875 12.6596C61.0523 12.1998 61.2646 11.8713 61.607 11.5265C61.9493 11.1816 62.2754 10.9682 62.7318 10.7892C63.0766 10.6537 63.5944 10.4936 64.5481 10.4495C65.4504 10.4084 65.8001 10.3961 67.6231 10.394V10.3965ZM73.7217 12.0326C73.0737 12.0326 72.5479 12.5615 72.5479 13.2145C72.5479 13.8672 73.0737 14.3968 73.7217 14.3968C74.3697 14.3968 74.8954 13.8672 74.8954 13.2145C74.8954 12.5617 74.3697 12.0322 73.7217 12.0322V12.0326ZM63.4774 18.4738C63.4774 15.6796 65.7263 13.4141 68.5003 13.414C71.2743 13.414 73.5228 15.6795 73.5228 18.4738C73.5228 21.2681 71.2745 23.5325 68.5005 23.5325C65.7265 23.5325 63.4774 21.2681 63.4774 18.4738Z" fill="white"/>
<path d="M68.5012 15.1896C70.3017 15.1896 71.7616 16.6599 71.7616 18.4738C71.7616 20.2875 70.3017 21.7581 68.5012 21.7581C66.7004 21.7581 65.2407 20.2875 65.2407 18.4738C65.2407 16.6599 66.7004 15.1896 68.5012 15.1896Z" fill="white"/>
<path fill-rule="evenodd" clip-rule="evenodd" d="M100.32 19.5263C100.32 29.729 108.531 38 118.66 38C128.789 38 137 29.729 137 19.5263C137 9.32356 128.789 1.05261 118.66 1.05261C108.531 1.05261 100.32 9.32356 100.32 19.5263ZM130.17 18.8194C130.168 24.8747 125.277 29.8018 119.265 29.8043H119.26C117.435 29.8037 115.642 29.3424 114.049 28.4672L108.268 29.9948L109.815 24.3025C108.86 22.6365 108.358 20.7468 108.359 18.8107C108.361 12.754 113.254 7.82638 119.265 7.82638C122.182 7.82765 124.92 8.97164 126.979 11.048C129.038 13.1243 130.171 15.8842 130.17 18.8194Z" fill="white"/>
<path fill-rule="evenodd" clip-rule="evenodd" d="M110.886 27.385L114.316 26.4785L114.647 26.6764C116.039 27.5083 117.634 27.9485 119.261 27.9491H119.265C124.26 27.9491 128.327 23.8532 128.329 18.8187C128.33 16.3791 127.388 14.0852 125.676 12.3593C123.965 10.6335 121.689 9.68261 119.268 9.68176C114.268 9.68176 110.202 13.7773 110.2 18.8113C110.199 20.5365 110.679 22.2167 111.586 23.6703L111.802 24.0158L110.886 27.385ZM124.385 21.1843C124.576 21.2769 124.704 21.3393 124.759 21.4315C124.827 21.5459 124.827 22.0955 124.6 22.7367C124.373 23.3779 123.284 23.963 122.76 24.0418C122.291 24.1125 121.697 24.142 121.044 23.933C120.648 23.8066 120.141 23.6377 119.491 23.3549C116.936 22.2438 115.21 19.7498 114.884 19.2784C114.861 19.2454 114.845 19.2223 114.836 19.2103L114.834 19.2074C114.689 19.0136 113.723 17.715 113.723 16.371C113.723 15.1066 114.34 14.4439 114.624 14.1389C114.643 14.118 114.661 14.0988 114.677 14.0812C114.927 13.8064 115.222 13.7377 115.404 13.7377C115.585 13.7377 115.767 13.7394 115.926 13.7474C115.945 13.7484 115.966 13.7483 115.987 13.7481C116.146 13.7472 116.344 13.746 116.539 14.2186C116.614 14.4004 116.724 14.67 116.84 14.9543C117.074 15.5293 117.333 16.1647 117.379 16.2566C117.447 16.394 117.493 16.5542 117.402 16.7375C117.388 16.765 117.376 16.7909 117.363 16.8157C117.295 16.956 117.245 17.0592 117.129 17.1953C117.084 17.2489 117.037 17.3066 116.99 17.3643C116.896 17.4793 116.802 17.5943 116.721 17.6762C116.584 17.8131 116.442 17.9616 116.601 18.2364C116.76 18.5112 117.307 19.41 118.117 20.1378C118.988 20.9202 119.745 21.2509 120.128 21.4185C120.203 21.4512 120.264 21.4777 120.308 21.5002C120.581 21.6376 120.74 21.6146 120.899 21.4315C121.058 21.2483 121.58 20.63 121.761 20.3552C121.943 20.0805 122.125 20.1263 122.374 20.2179C122.624 20.3095 123.964 20.9735 124.236 21.1109C124.29 21.1377 124.339 21.1619 124.385 21.1843Z" fill="white"/>
</svg>
